<?xml version="1.0" encoding="utf-8"?>
<!-- Generator: Adobe Illustrator 24.0.0, SVG Export Plug-In . SVG Version: 6.00 Build 0)  -->
<svg version="1.1" id="Layer_1" xmlns="http://www.w3.org/2000/svg" xmlns:xlink="http://www.w3.org/1999/xlink" x="0px" y="0px"
	 viewBox="0 0 256 256" style="enable-background:new 0 0 256 256;" xml:space="preserve">
<style type="text/css">
	.st0{fill:#382B73;}
	.st1{fill:#291B4A;}
	.st2{fill:#ED9ABC;}
	.st3{fill:#E54890;}
	.st4{fill:#D3D3D3;}
	.st5{fill:#EBE7F2;}
	.st6{fill:#F9B087;}
	.st7{fill:#FF8639;}
	.st8{fill:#65C1D6;}
	.st9{fill:#149CB2;}
</style>
<g>
	<g>
		<g>
			<g>
				<g>
					<circle class="st0" cx="128" cy="128" r="119.4"/>
				</g>
			</g>
		</g>
	</g>
	<g>
		<g>
			<g>
				<g>
					<path class="st1" d="M182.709,214.2c3.878,0,7.032-3.154,7.032-7.032V56.832c0-3.877-3.154-7.032-7.032-7.032h-73.688
						c-1.879,0-3.646,0.731-4.972,2.06l-35.73,35.73c-1.329,1.327-2.06,3.093-2.06,4.973v114.606c0,3.877,3.154,7.032,7.032,7.032
						H182.709z M104.644,58.335v29.85h-29.85L104.644,58.335z M71.259,207.168V93.185h35.885c1.381,0,2.5-1.119,2.5-2.5V54.8h73.065
						c1.12,0,2.032,0.912,2.032,2.032v150.337c0,1.12-0.912,2.032-2.032,2.032H73.291C72.171,209.2,71.259,208.289,71.259,207.168z"
						/>
				</g>
			</g>
		</g>
		<g>
			<g>
				<g>
					<path class="st1" d="M86.49,99.72c-1.381,0-2.5,1.119-2.5,2.5v35.376c0,1.381,1.119,2.5,2.5,2.5h17.688
						c1.381,0,2.5-1.119,2.5-2.5s-1.119-2.5-2.5-2.5H88.99V102.22C88.99,100.839,87.871,99.72,86.49,99.72z"/>
				</g>
			</g>
		</g>
		<g>
			<g>
				<g>
					<path class="st1" d="M136.844,140.096c1.381,0,2.5-1.119,2.5-2.5V102.22c0-1.381-1.119-2.5-2.5-2.5h-17.688
						c-1.381,0-2.5,1.119-2.5,2.5v35.376c0,1.381,1.119,2.5,2.5,2.5H136.844z M121.656,104.72h12.688v30.376h-12.688V104.72z"/>
				</g>
			</g>
		</g>
		<g>
			<g>
				<g>
					<path class="st1" d="M169.51,104.72c1.381,0,2.5-1.119,2.5-2.5s-1.119-2.5-2.5-2.5h-17.688c-1.381,0-2.5,1.119-2.5,2.5v35.376
						c0,1.381,1.119,2.5,2.5,2.5h17.688c1.381,0,2.5-1.119,2.5-2.5v-17.688c0-1.381-1.119-2.5-2.5-2.5h-8.844
						c-1.381,0-2.5,1.119-2.5,2.5s1.119,2.5,2.5,2.5h6.344v12.688h-12.688V104.72H169.51z"/>
				</g>
			</g>
		</g>
		<g>
			<g>
				<g>
					<path class="st1" d="M169.51,155.628c1.381,0,2.5-1.119,2.5-2.5s-1.119-2.5-2.5-2.5H86.49c-1.381,0-2.5,1.119-2.5,2.5
						s1.119,2.5,2.5,2.5H169.51z"/>
				</g>
			</g>
		</g>
		<g>
			<g>
				<g>
					<path class="st1" d="M169.51,169.415c1.381,0,2.5-1.119,2.5-2.5s-1.119-2.5-2.5-2.5h-48.237c-1.381,0-2.5,1.119-2.5,2.5
						s1.119,2.5,2.5,2.5H169.51z"/>
				</g>
			</g>
		</g>
		<g>
			<g>
				<g>
					<path class="st1" d="M111.273,169.415c1.381,0,2.5-1.119,2.5-2.5s-1.119-2.5-2.5-2.5H86.49c-1.381,0-2.5,1.119-2.5,2.5
						s1.119,2.5,2.5,2.5H111.273z"/>
				</g>
			</g>
		</g>
		<g>
			<g>
				<g>
					<path class="st1" d="M169.51,183.202c1.381,0,2.5-1.119,2.5-2.5s-1.119-2.5-2.5-2.5h-22.666c-1.381,0-2.5,1.119-2.5,2.5
						s1.119,2.5,2.5,2.5H169.51z"/>
				</g>
			</g>
		</g>
		<g>
			<g>
				<g>
					<path class="st1" d="M136.844,183.202c1.381,0,2.5-1.119,2.5-2.5s-1.119-2.5-2.5-2.5H86.49c-1.381,0-2.5,1.119-2.5,2.5
						s1.119,2.5,2.5,2.5H136.844z"/>
				</g>
			</g>
		</g>
		<g>
			<g>
				<g>
					<path class="st1" d="M169.51,196.99c1.381,0,2.5-1.119,2.5-2.5s-1.119-2.5-2.5-2.5h-40.354c-1.381,0-2.5,1.119-2.5,2.5
						s1.119,2.5,2.5,2.5H169.51z"/>
				</g>
			</g>
		</g>
		<g>
			<g>
				<g>
					<path class="st1" d="M119.156,196.99c1.381,0,2.5-1.119,2.5-2.5s-1.119-2.5-2.5-2.5H86.49c-1.381,0-2.5,1.119-2.5,2.5
						s1.119,2.5,2.5,2.5H119.156z"/>
				</g>
			</g>
		</g>
	</g>
	<g>
		<g>
			<g>
				<g>
					<g>
						<g>
							<g>
								<path class="st2" d="M182.709,210.2c3.878,0,7.032-3.154,7.032-7.032V52.832c0-3.877-3.154-7.032-7.032-7.032h-73.688
									c-1.879,0-3.646,0.731-4.972,2.06l-35.73,35.73c-1.329,1.327-2.06,3.093-2.06,4.973v114.606
									c0,3.877,3.154,7.032,7.032,7.032H182.709z M71.259,203.168V88.562c0-0.543,0.211-1.053,0.595-1.437l35.731-35.731
									c0.383-0.383,0.894-0.594,1.437-0.594h73.688c1.12,0,2.032,0.912,2.032,2.032v150.337c0,1.12-0.912,2.032-2.032,2.032
									H73.291C72.171,205.2,71.259,204.289,71.259,203.168z"/>
							</g>
						</g>
					</g>
					<g>
						<g>
							<g>
								<path class="st2" d="M107.144,89.185c1.381,0,2.5-1.119,2.5-2.5V49.206c0-1.381-1.119-2.5-2.5-2.5s-2.5,1.119-2.5,2.5
									v34.979H69.666c-1.381,0-2.5,1.119-2.5,2.5s1.119,2.5,2.5,2.5H107.144z"/>
							</g>
						</g>
					</g>
				</g>
			</g>
		</g>
		<g>
			<g>
				<g>
					<path class="st3" d="M74.794,85.685h29.85c0.828,0,1.5-0.672,1.5-1.5v-29.85c0-0.607-0.365-1.154-0.926-1.386
						c-0.186-0.077-0.38-0.114-0.574-0.114c-0.39,0-0.774,0.152-1.061,0.439l-29.85,29.85c-0.429,0.429-0.557,1.074-0.325,1.635
						S74.188,85.685,74.794,85.685z M104.644,54.335v29.85h-29.85L104.644,54.335z"/>
					<path class="st3" d="M182.709,210.2c3.878,0,7.032-3.154,7.032-7.032V52.832c0-3.877-3.154-7.032-7.032-7.032h-73.688
						c-1.879,0-3.646,0.731-4.972,2.06l-35.73,35.73c-1.329,1.327-2.06,3.093-2.06,4.973v114.606c0,3.877,3.154,7.032,7.032,7.032
						H182.709z M67.759,203.168V88.562c0-1.479,0.575-2.868,1.621-3.912l35.731-35.73c1.043-1.044,2.432-1.62,3.911-1.62h73.688
						c3.05,0,5.532,2.481,5.532,5.532v150.337c0,3.05-2.482,5.532-5.532,5.532H73.291C70.241,208.7,67.759,206.219,67.759,203.168z"
						/>
					<path class="st3" d="M182.709,206.7c1.948,0,3.532-1.584,3.532-3.532V52.832c0-1.948-1.585-3.532-3.532-3.532h-73.065
						c-0.828,0-1.5,0.672-1.5,1.5v35.885c0,0.552-0.449,1-1,1H71.259c-0.828,0-1.5,0.672-1.5,1.5v113.984
						c0,1.948,1.584,3.532,3.532,3.532H182.709z M71.259,203.168V89.185h35.885c1.381,0,2.5-1.119,2.5-2.5V50.8h73.065
						c1.12,0,2.032,0.912,2.032,2.032v150.337c0,1.12-0.912,2.032-2.032,2.032H73.291C72.171,205.2,71.259,204.289,71.259,203.168z"
						/>
				</g>
			</g>
		</g>
		<g>
			<g>
				<g>
					<g>
						<g>
							<g>
								<path class="st6" d="M86.49,95.72c-1.381,0-2.5,1.119-2.5,2.5v35.376c0,1.381,1.119,2.5,2.5,2.5h17.688
									c1.381,0,2.5-1.119,2.5-2.5s-1.119-2.5-2.5-2.5H88.99V98.22C88.99,96.839,87.871,95.72,86.49,95.72z"/>
							</g>
						</g>
					</g>
				</g>
				<g>
					<g>
						<g>
							<g>
								<path class="st6" d="M136.844,136.096c1.381,0,2.5-1.119,2.5-2.5V98.22c0-1.381-1.119-2.5-2.5-2.5h-17.688
									c-1.381,0-2.5,1.119-2.5,2.5v35.376c0,1.381,1.119,2.5,2.5,2.5H136.844z M121.656,100.72h12.688v30.376h-12.688V100.72z"/>
							</g>
						</g>
					</g>
				</g>
				<g>
					<g>
						<g>
							<g>
								<path class="st6" d="M169.51,100.72c1.381,0,2.5-1.119,2.5-2.5s-1.119-2.5-2.5-2.5h-17.688c-1.381,0-2.5,1.119-2.5,2.5
									v35.376c0,1.381,1.119,2.5,2.5,2.5h17.688c1.381,0,2.5-1.119,2.5-2.5v-17.688c0-1.381-1.119-2.5-2.5-2.5h-8.844
									c-1.381,0-2.5,1.119-2.5,2.5s1.119,2.5,2.5,2.5h6.344v12.688h-12.688V100.72H169.51z"/>
							</g>
						</g>
					</g>
				</g>
			</g>
		</g>
		<g>
			<g>
				<g>
					<g>
						<path class="st4" d="M169.51,151.628c1.381,0,2.5-1.119,2.5-2.5s-1.119-2.5-2.5-2.5H86.49c-1.381,0-2.5,1.119-2.5,2.5
							s1.119,2.5,2.5,2.5H169.51z"/>
					</g>
				</g>
			</g>
			<g>
				<g>
					<g>
						<path class="st6" d="M169.51,165.415c1.381,0,2.5-1.119,2.5-2.5s-1.119-2.5-2.5-2.5h-48.237c-1.381,0-2.5,1.119-2.5,2.5
							s1.119,2.5,2.5,2.5H169.51z"/>
					</g>
				</g>
			</g>
			<g>
				<g>
					<g>
						<path class="st6" d="M111.273,165.415c1.381,0,2.5-1.119,2.5-2.5s-1.119-2.5-2.5-2.5H86.49c-1.381,0-2.5,1.119-2.5,2.5
							s1.119,2.5,2.5,2.5H111.273z"/>
					</g>
				</g>
			</g>
			<g>
				<g>
					<g>
						<path class="st6" d="M169.51,179.202c1.381,0,2.5-1.119,2.5-2.5s-1.119-2.5-2.5-2.5h-22.666c-1.381,0-2.5,1.119-2.5,2.5
							s1.119,2.5,2.5,2.5H169.51z"/>
					</g>
				</g>
			</g>
			<g>
				<g>
					<g>
						<path class="st6" d="M136.844,179.202c1.381,0,2.5-1.119,2.5-2.5s-1.119-2.5-2.5-2.5H86.49c-1.381,0-2.5,1.119-2.5,2.5
							s1.119,2.5,2.5,2.5H136.844z"/>
					</g>
				</g>
			</g>
			<g>
				<g>
					<g>
						<path class="st6" d="M169.51,192.99c1.381,0,2.5-1.119,2.5-2.5s-1.119-2.5-2.5-2.5h-40.354c-1.381,0-2.5,1.119-2.5,2.5
							s1.119,2.5,2.5,2.5H169.51z"/>
					</g>
				</g>
			</g>
			<g>
				<g>
					<g>
						<path class="st6" d="M119.156,192.99c1.381,0,2.5-1.119,2.5-2.5s-1.119-2.5-2.5-2.5H86.49c-1.381,0-2.5,1.119-2.5,2.5
							s1.119,2.5,2.5,2.5H119.156z"/>
					</g>
				</g>
			</g>
		</g>
		<g>
			<g>
				<g>
					<g>
						<path class="st7" d="M86.49,95.72c-1.381,0-2.5,1.119-2.5,2.5v35.376c0,1.381,1.119,2.5,2.5,2.5h17.688
							c1.381,0,2.5-1.119,2.5-2.5s-1.119-2.5-2.5-2.5H88.99V98.22C88.99,96.839,87.871,95.72,86.49,95.72z M104.178,132.596
							c0.551,0,1,0.448,1,1s-0.449,1-1,1H86.49c-0.551,0-1-0.448-1-1V98.22c0-0.552,0.449-1,1-1s1,0.448,1,1v32.876
							c0,0.828,0.672,1.5,1.5,1.5H104.178z"/>
					</g>
				</g>
			</g>
			<g>
				<g>
					<g>
						<path class="st7" d="M136.844,136.096c1.381,0,2.5-1.119,2.5-2.5V98.22c0-1.381-1.119-2.5-2.5-2.5h-17.688
							c-1.381,0-2.5,1.119-2.5,2.5v35.376c0,1.381,1.119,2.5,2.5,2.5H136.844z M118.156,133.596V98.22c0-0.552,0.449-1,1-1h17.688
							c0.551,0,1,0.448,1,1v35.376c0,0.552-0.449,1-1,1h-17.688C118.604,134.596,118.156,134.147,118.156,133.596z"/>
						<path class="st7" d="M121.656,132.596h12.688c0.828,0,1.5-0.672,1.5-1.5V100.72c0-0.828-0.672-1.5-1.5-1.5h-12.688
							c-0.828,0-1.5,0.672-1.5,1.5v30.376C120.156,131.924,120.827,132.596,121.656,132.596z M121.656,100.72h12.688v30.376h-12.688
							V100.72z"/>
					</g>
				</g>
			</g>
			<g>
				<g>
					<g>
						<path class="st7" d="M169.51,100.72c1.381,0,2.5-1.119,2.5-2.5s-1.119-2.5-2.5-2.5h-17.688c-1.381,0-2.5,1.119-2.5,2.5v35.376
							c0,1.381,1.119,2.5,2.5,2.5h17.688c1.381,0,2.5-1.119,2.5-2.5v-17.688c0-1.381-1.119-2.5-2.5-2.5h-8.844
							c-1.381,0-2.5,1.119-2.5,2.5s1.119,2.5,2.5,2.5h6.344v12.688h-12.688V100.72H169.51z M154.321,132.596h12.688
							c0.828,0,1.5-0.672,1.5-1.5v-12.688c0-0.828-0.672-1.5-1.5-1.5h-6.344c-0.551,0-1-0.448-1-1s0.449-1,1-1h8.844
							c0.551,0,1,0.448,1,1v17.688c0,0.552-0.449,1-1,1h-17.688c-0.551,0-1-0.448-1-1V98.22c0-0.552,0.449-1,1-1h17.688
							c0.551,0,1,0.448,1,1s-0.449,1-1,1h-15.188c-0.828,0-1.5,0.672-1.5,1.5v30.376
							C152.821,131.924,153.493,132.596,154.321,132.596z"/>
					</g>
				</g>
			</g>
			<g>
				<g>
					<g>
						<path class="st7" d="M169.51,165.415c1.381,0,2.5-1.119,2.5-2.5s-1.119-2.5-2.5-2.5h-48.237c-1.381,0-2.5,1.119-2.5,2.5
							s1.119,2.5,2.5,2.5H169.51z M120.273,162.915c0-0.552,0.449-1,1-1h48.237c0.551,0,1,0.448,1,1s-0.449,1-1,1h-48.237
							C120.722,163.915,120.273,163.467,120.273,162.915z"/>
					</g>
				</g>
			</g>
			<g>
				<g>
					<g>
						<path class="st7" d="M111.273,165.415c1.381,0,2.5-1.119,2.5-2.5s-1.119-2.5-2.5-2.5H86.49c-1.381,0-2.5,1.119-2.5,2.5
							s1.119,2.5,2.5,2.5H111.273z M85.49,162.915c0-0.552,0.449-1,1-1h24.783c0.551,0,1,0.448,1,1s-0.449,1-1,1H86.49
							C85.939,163.915,85.49,163.467,85.49,162.915z"/>
					</g>
				</g>
			</g>
			<g>
				<g>
					<g>
						<path class="st7" d="M169.51,179.202c1.381,0,2.5-1.119,2.5-2.5s-1.119-2.5-2.5-2.5h-22.666c-1.381,0-2.5,1.119-2.5,2.5
							s1.119,2.5,2.5,2.5H169.51z M145.844,176.702c0-0.552,0.449-1,1-1h22.666c0.551,0,1,0.448,1,1s-0.449,1-1,1h-22.666
							C146.292,177.702,145.844,177.254,145.844,176.702z"/>
					</g>
				</g>
			</g>
			<g>
				<g>
					<g>
						<path class="st7" d="M136.844,179.202c1.381,0,2.5-1.119,2.5-2.5s-1.119-2.5-2.5-2.5H86.49c-1.381,0-2.5,1.119-2.5,2.5
							s1.119,2.5,2.5,2.5H136.844z M85.49,176.702c0-0.552,0.449-1,1-1h50.354c0.551,0,1,0.448,1,1s-0.449,1-1,1H86.49
							C85.939,177.702,85.49,177.254,85.49,176.702z"/>
					</g>
				</g>
			</g>
			<g>
				<g>
					<g>
						<path class="st7" d="M169.51,192.99c1.381,0,2.5-1.119,2.5-2.5s-1.119-2.5-2.5-2.5h-40.354c-1.381,0-2.5,1.119-2.5,2.5
							s1.119,2.5,2.5,2.5H169.51z M128.156,190.49c0-0.552,0.449-1,1-1h40.354c0.551,0,1,0.448,1,1s-0.449,1-1,1h-40.354
							C128.605,191.49,128.156,191.041,128.156,190.49z"/>
					</g>
				</g>
			</g>
			<g>
				<g>
					<g>
						<path class="st7" d="M119.156,192.99c1.381,0,2.5-1.119,2.5-2.5s-1.119-2.5-2.5-2.5H86.49c-1.381,0-2.5,1.119-2.5,2.5
							s1.119,2.5,2.5,2.5H119.156z M85.49,190.49c0-0.552,0.449-1,1-1h32.666c0.551,0,1,0.448,1,1s-0.449,1-1,1H86.49
							C85.939,191.49,85.49,191.041,85.49,190.49z"/>
					</g>
				</g>
			</g>
		</g>
		<g>
			<g>
				<g>
					<g>
						<path class="st5" d="M169.51,151.628c1.381,0,2.5-1.119,2.5-2.5s-1.119-2.5-2.5-2.5H86.49c-1.381,0-2.5,1.119-2.5,2.5
							s1.119,2.5,2.5,2.5H169.51z M85.49,149.128c0-0.552,0.449-1,1-1h83.02c0.551,0,1,0.448,1,1s-0.449,1-1,1H86.49
							C85.939,150.128,85.49,149.679,85.49,149.128z"/>
					</g>
				</g>
			</g>
		</g>
	</g>
</g>
</svg>
