<?xml version="1.0" encoding="UTF-8" standalone="no" ?>
<!DOCTYPE svg PUBLIC "-//W3C//DTD SVG 1.1//EN" "http://www.w3.org/Graphics/SVG/1.1/DTD/svg11.dtd">
<svg xmlns="http://www.w3.org/2000/svg" xmlns:xlink="http://www.w3.org/1999/xlink" version="1.1" width="1080" height="1080" viewBox="0 0 1080 1080" xml:space="preserve">
<desc>Created with Fabric.js 5.2.4</desc>
<defs>
</defs>
<g transform="matrix(1 0 0 1 540 540)" id="05290a7d-ae6b-4984-9ed6-f582f948416c"  >
<rect style="stroke: none; stroke-width: 1; stroke-dasharray: none; stroke-linecap: butt; stroke-dashoffset: 0; stroke-linejoin: miter; stroke-miterlimit: 4; fill: rgb(255,255,255); fill-rule: nonzero; opacity: 1; visibility: hidden;" vector-effect="non-scaling-stroke"  x="-540" y="-540" rx="0" ry="0" width="1080" height="1080" />
</g>
<g transform="matrix(1 0 0 1 540 540)" id="0fa677d8-e7a7-4729-89bf-fcf64db43118"  >
</g>
<g transform="matrix(1.34 0 0 1.34 540 540)"  >
<g style="" vector-effect="non-scaling-stroke"   >
		<g transform="matrix(1 0 0 1 0 0)"  >
<circle style="stroke: none; stroke-width: 1; stroke-dasharray: none; stroke-linecap: butt; stroke-dashoffset: 0; stroke-linejoin: miter; stroke-miterlimit: 4; fill: rgb(56,43,115); fill-rule: nonzero; opacity: 1;" vector-effect="non-scaling-stroke"  cx="0" cy="0" r="398" />
</g>
		<g transform="matrix(1 0 0 1 0 0)"  >
<circle style="stroke: none; stroke-width: 1; stroke-dasharray: none; stroke-linecap: butt; stroke-dashoffset: 0; stroke-linejoin: miter; stroke-miterlimit: 4; fill: rgb(71,48,128); fill-rule: nonzero; opacity: 1;" vector-effect="non-scaling-stroke"  cx="0" cy="0" r="344.3" />
</g>
		<g transform="matrix(1 0 0 1 -0.2 19.95)"  >
<path style="stroke: none; stroke-width: 1; stroke-dasharray: none; stroke-linecap: butt; stroke-dashoffset: 0; stroke-linejoin: miter; stroke-miterlimit: 4; fill: rgb(56,43,115); fill-rule: nonzero; opacity: 1;" vector-effect="non-scaling-stroke"  transform=" translate(-499.8, -519.95)" d="M 640.6 473.9 C 628.5 473.9 618.6 483.7 618.6 495.9 L 618.6 500.29999999999995 L 587.9 500.29999999999995 L 587.9 487.69999999999993 L 587.9 476.69999999999993 L 587.9 469.69999999999993 L 587.9 455.19999999999993 L 587.9 429.3999999999999 L 587.9 422.3999999999999 L 587.9 408 L 587.9 382.2 L 587.9 375.2 L 587.9 360.7 L 587.9 349.7 L 587.9 349.7 C 587.9 338.3 585.6999999999999 327.5 581.8 317.5 C 581.3 316.2 580.6999999999999 314.9 580.0999999999999 313.6 C 579.4999999999999 312.3 578.8999999999999 311 578.1999999999999 309.8 C 577.9 309.2 577.4999999999999 308.5 577.1999999999999 307.90000000000003 C 576.4999999999999 306.70000000000005 575.8 305.40000000000003 575.0999999999999 304.20000000000005 C 572.4999999999999 300.00000000000006 569.5999999999999 296.00000000000006 566.3999999999999 292.30000000000007 C 565.4999999999999 291.20000000000005 564.4999999999999 290.20000000000005 563.5999999999999 289.20000000000005 C 563.0999999999999 288.70000000000005 562.5999999999999 288.20000000000005 562.0999999999999 287.70000000000005 C 561.0999999999999 286.70000000000005 560.0999999999999 285.70000000000005 558.9999999999999 284.80000000000007 C 557.1999999999999 283.20000000000005 555.2999999999998 281.6000000000001 553.3999999999999 280.1000000000001 C 553.2999999999998 280.00000000000006 553.1999999999998 279.9000000000001 553.0999999999999 279.9000000000001 C 552.3 279.30000000000007 551.5999999999999 278.80000000000007 550.8 278.2000000000001 C 550 277.6000000000001 549.1999999999999 277.1000000000001 548.4 276.5000000000001 C 548.1999999999999 276.4000000000001 548.1 276.3000000000001 547.9 276.2000000000001 C 547.1 275.7000000000001 546.3 275.2000000000001 545.5 274.7000000000001 C 544.9 274.3000000000001 544.3 274.0000000000001 543.7 273.6000000000001 C 543.5 273.50000000000006 543.2 273.30000000000007 543 273.2000000000001 C 542.8 273.1000000000001 542.7 273.0000000000001 542.5 272.9000000000001 C 541 272.1000000000001 539.5 271.30000000000007 538 270.6000000000001 C 537.7 270.50000000000006 537.5 270.4000000000001 537.2 270.2000000000001 C 537.1 270.2000000000001 537 270.1000000000001 537 270.1000000000001 C 536 269.7000000000001 535.1 269.2000000000001 534.1 268.80000000000007 C 532.8000000000001 268.20000000000005 531.5 267.70000000000005 530.1 267.20000000000005 C 529.4 267.00000000000006 528.8000000000001 266.70000000000005 528.1 266.50000000000006 C 522.7 264.70000000000005 517 263.30000000000007 511.1 262.6000000000001 C 510.90000000000003 262.6000000000001 510.8 262.6000000000001 510.6 262.50000000000006 L 510.6 262.50000000000006 C 510.5 262.50000000000006 510.40000000000003 262.50000000000006 510.20000000000005 262.50000000000006 C 509.70000000000005 262.40000000000003 509.30000000000007 262.40000000000003 508.80000000000007 262.30000000000007 C 508.6000000000001 262.30000000000007 508.4000000000001 262.30000000000007 508.20000000000005 262.20000000000005 C 507.90000000000003 262.20000000000005 507.70000000000005 262.20000000000005 507.40000000000003 262.1 C 506.8 262.1 506.3 262 505.70000000000005 262 C 505.40000000000003 262 505.1 262 504.80000000000007 261.9 C 504.20000000000005 261.9 503.6000000000001 261.79999999999995 503.1000000000001 261.79999999999995 C 502.80000000000007 261.79999999999995 502.6000000000001 261.79999999999995 502.30000000000007 261.79999999999995 C 501.50000000000006 261.79999999999995 500.6000000000001 261.79999999999995 499.80000000000007 261.79999999999995 L 499.80000000000007 261.79999999999995 C 499.00000000000006 261.79999999999995 498.1000000000001 261.79999999999995 497.30000000000007 261.79999999999995 C 497.00000000000006 261.79999999999995 496.80000000000007 261.79999999999995 496.50000000000006 261.79999999999995 C 495.90000000000003 261.79999999999995 495.30000000000007 261.79999999999995 494.80000000000007 261.9 C 494.50000000000006 261.9 494.20000000000005 261.9 493.9000000000001 262 C 493.30000000000007 262 492.80000000000007 262.1 492.2000000000001 262.1 C 491.9000000000001 262.1 491.7000000000001 262.1 491.4000000000001 262.20000000000005 C 491.2000000000001 262.20000000000005 491.0000000000001 262.20000000000005 490.80000000000007 262.30000000000007 C 490.30000000000007 262.30000000000007 489.9000000000001 262.4000000000001 489.4000000000001 262.50000000000006 C 489.30000000000007 262.50000000000006 489.2000000000001 262.50000000000006 489.0000000000001 262.50000000000006 L 489.0000000000001 262.50000000000006 C 488.8000000000001 262.50000000000006 488.7000000000001 262.50000000000006 488.5000000000001 262.6000000000001 C 482.60000000000014 263.30000000000007 477.0000000000001 264.7000000000001 471.5000000000001 266.50000000000006 C 470.8000000000001 266.70000000000005 470.10000000000014 267.00000000000006 469.5000000000001 267.20000000000005 C 468.2000000000001 267.70000000000005 466.8000000000001 268.20000000000005 465.5000000000001 268.80000000000007 C 464.5000000000001 269.20000000000005 463.60000000000014 269.6000000000001 462.60000000000014 270.1000000000001 C 462.5000000000001 270.1000000000001 462.40000000000015 270.2000000000001 462.40000000000015 270.2000000000001 C 462.10000000000014 270.3000000000001 461.90000000000015 270.4000000000001 461.60000000000014 270.6000000000001 C 460.10000000000014 271.30000000000007 458.60000000000014 272.1000000000001 457.10000000000014 272.9000000000001 C 456.90000000000015 273.0000000000001 456.8000000000001 273.1000000000001 456.60000000000014 273.2000000000001 C 456.40000000000015 273.3000000000001 456.10000000000014 273.4000000000001 455.90000000000015 273.6000000000001 C 455.3000000000001 274.00000000000006 454.70000000000016 274.30000000000007 454.10000000000014 274.7000000000001 C 453.3000000000001 275.2000000000001 452.5000000000001 275.7000000000001 451.70000000000016 276.2000000000001 C 451.50000000000017 276.3000000000001 451.40000000000015 276.4000000000001 451.20000000000016 276.5000000000001 C 450.40000000000015 277.0000000000001 449.60000000000014 277.60000000000014 448.8000000000002 278.2000000000001 C 448.00000000000017 278.7000000000001 447.3000000000002 279.3000000000001 446.50000000000017 279.9000000000001 C 446.40000000000015 280.0000000000001 446.3000000000002 280.1000000000001 446.20000000000016 280.1000000000001 C 444.3000000000002 281.6000000000001 442.40000000000015 283.2000000000001 440.60000000000014 284.80000000000007 C 439.60000000000014 285.70000000000005 438.5000000000001 286.70000000000005 437.5000000000001 287.70000000000005 C 437.0000000000001 288.20000000000005 436.5000000000001 288.70000000000005 436.0000000000001 289.20000000000005 C 435.0000000000001 290.20000000000005 434.10000000000014 291.30000000000007 433.2000000000001 292.30000000000007 C 430.0000000000001 296.00000000000006 427.1000000000001 300.00000000000006 424.5000000000001 304.20000000000005 C 423.8000000000001 305.40000000000003 423.10000000000014 306.6 422.4000000000001 307.90000000000003 C 422.1000000000001 308.50000000000006 421.7000000000001 309.1 421.4000000000001 309.8 C 420.80000000000007 311.1 420.1000000000001 312.3 419.5000000000001 313.6 C 418.9000000000001 314.90000000000003 418.4000000000001 316.20000000000005 417.8000000000001 317.5 C 413.90000000000015 327.5 411.7000000000001 338.3 411.7000000000001 349.7 L 411.7000000000001 349.7 L 411.7000000000001 360.7 L 411.7000000000001 375.2 L 411.7000000000001 382.2 L 411.7000000000001 408 L 411.7000000000001 422.5 L 411.7000000000001 429.5 L 411.7000000000001 455.3 L 411.7000000000001 469.8 L 411.7000000000001 476.8 L 411.7000000000001 487.8 L 411.7000000000001 500.40000000000003 L 381.0000000000001 500.40000000000003 L 381.0000000000001 496.00000000000006 C 381.0000000000001 483.90000000000003 371.2000000000001 474.00000000000006 359.0000000000001 474.00000000000006 C 346.9000000000001 474.00000000000006 337.0000000000001 483.80000000000007 337.0000000000001 496.00000000000006 L 337.0000000000001 532.2 C 337.0000000000001 614.4000000000001 398.3000000000001 682.5 477.60000000000014 693.2 L 477.60000000000014 704.2 L 477.60000000000014 734.2 L 411.70000000000016 734.2 C 400.90000000000015 734.2 391.90000000000015 742 390.10000000000014 752.2 C 390.10000000000014 752.2 390.10000000000014 752.2 390.10000000000014 752.2 C 390.0000000000001 752.6 390.0000000000001 753 389.90000000000015 753.3000000000001 C 389.90000000000015 753.4000000000001 389.90000000000015 753.4000000000001 389.90000000000015 753.5000000000001 C 389.90000000000015 753.8000000000001 389.8000000000001 754.2000000000002 389.8000000000001 754.5000000000001 C 389.8000000000001 754.6000000000001 389.8000000000001 754.7000000000002 389.8000000000001 754.8000000000001 C 389.8000000000001 755.2 389.8000000000001 755.6 389.8000000000001 756.1 C 389.8000000000001 768.2 399.60000000000014 778.1 411.8000000000001 778.1 L 587.5000000000001 778.1 C 599.6000000000001 778.1 609.5000000000001 768.3000000000001 609.5000000000001 756.1 C 609.5000000000001 755.7 609.5000000000001 755.3000000000001 609.5000000000001 754.8000000000001 C 609.5000000000001 754.7 609.5000000000001 754.6 609.5000000000001 754.5000000000001 C 609.5000000000001 754.2000000000002 609.4000000000001 753.8000000000001 609.4000000000001 753.5000000000001 C 609.4000000000001 753.4000000000001 609.4000000000001 753.4000000000001 609.4000000000001 753.3000000000001 C 609.4000000000001 752.9000000000001 609.3000000000001 752.5000000000001 609.2 752.2 C 609.2 752.2 609.2 752.2 609.2 752.2 C 607.4000000000001 741.9000000000001 598.4000000000001 734.2 587.6 734.2 L 522 734.2 L 522 704.2 L 522 693.2 C 601.3 682.4000000000001 662.6 614.3000000000001 662.6 532.2 L 662.6 496.00000000000006 C 662.5 483.7 652.7 473.9 640.6 473.9 z M 381.4 528.8 L 412.09999999999997 528.8 L 412.09999999999997 531.5999999999999 L 412.09999999999997 531.5999999999999 C 412.09999999999997 532.3999999999999 412.09999999999997 533.1999999999999 412.09999999999997 533.9999999999999 C 412.09999999999997 534.2999999999998 412.09999999999997 534.4999999999999 412.09999999999997 534.7999999999998 C 412.09999999999997 535.3999999999999 412.09999999999997 535.8999999999999 412.2 536.3999999999999 C 412.2 536.6999999999998 412.2 536.9999999999999 412.3 537.2999999999998 C 412.3 537.7999999999998 412.40000000000003 538.2999999999998 412.40000000000003 538.7999999999998 C 412.40000000000003 539.0999999999998 412.50000000000006 539.3999999999999 412.50000000000006 539.7999999999998 C 412.50000000000006 540.2999999999998 412.6000000000001 540.7999999999998 412.6000000000001 541.1999999999998 C 412.6000000000001 541.4999999999998 412.7000000000001 541.7999999999998 412.7000000000001 542.1999999999998 C 412.8000000000001 542.6999999999998 412.8000000000001 543.1999999999998 412.9000000000001 543.5999999999998 C 412.9000000000001 543.8999999999997 413.0000000000001 544.1999999999998 413.0000000000001 544.4999999999998 C 413.10000000000014 544.9999999999998 413.2000000000001 545.4999999999998 413.2000000000001 545.9999999999998 C 413.2000000000001 546.2999999999997 413.3000000000001 546.5999999999998 413.3000000000001 546.8999999999997 C 413.40000000000015 547.3999999999997 413.5000000000001 547.9999999999998 413.60000000000014 548.4999999999998 C 413.60000000000014 548.6999999999998 413.70000000000016 548.9999999999998 413.70000000000016 549.1999999999998 C 413.90000000000015 549.9999999999998 414.00000000000017 550.6999999999998 414.20000000000016 551.4999999999998 C 414.20000000000016 551.5999999999998 414.20000000000016 551.6999999999998 414.3000000000002 551.7999999999997 C 414.50000000000017 552.4999999999998 414.6000000000002 553.0999999999997 414.8000000000002 553.7999999999997 C 414.9000000000002 554.0999999999997 414.9000000000002 554.2999999999997 415.00000000000017 554.5999999999997 C 415.1000000000002 555.0999999999997 415.3000000000002 555.5999999999997 415.40000000000015 555.9999999999997 C 415.50000000000017 556.2999999999996 415.60000000000014 556.5999999999997 415.70000000000016 556.8999999999996 C 415.8000000000002 557.2999999999996 416.00000000000017 557.7999999999996 416.10000000000014 558.1999999999996 C 416.20000000000016 558.4999999999995 416.3000000000001 558.7999999999996 416.40000000000015 559.0999999999996 C 416.50000000000017 559.4999999999995 416.70000000000016 559.8999999999995 416.8000000000001 560.3999999999995 C 416.90000000000015 560.6999999999995 417.0000000000001 560.9999999999995 417.10000000000014 561.2999999999995 C 417.20000000000016 561.6999999999995 417.40000000000015 562.0999999999995 417.60000000000014 562.4999999999995 C 417.70000000000016 562.7999999999995 417.8000000000001 563.0999999999996 418.0000000000001 563.3999999999995 C 418.2000000000001 563.7999999999995 418.3000000000001 564.1999999999995 418.5000000000001 564.6999999999995 C 418.60000000000014 564.9999999999994 418.7000000000001 565.2999999999995 418.9000000000001 565.5999999999995 C 419.1000000000001 566.0999999999995 419.30000000000007 566.4999999999994 419.5000000000001 566.9999999999994 C 419.60000000000014 567.1999999999995 419.7000000000001 567.4999999999994 419.8000000000001 567.6999999999995 C 420.10000000000014 568.3999999999995 420.40000000000015 569.0999999999995 420.7000000000001 569.6999999999995 C 420.8000000000001 569.8999999999995 420.9000000000001 570.0999999999995 421.0000000000001 570.2999999999995 C 421.2000000000001 570.7999999999995 421.5000000000001 571.1999999999995 421.7000000000001 571.6999999999995 C 421.8000000000001 571.9999999999994 422.0000000000001 572.1999999999995 422.1000000000001 572.4999999999994 C 422.30000000000007 572.8999999999994 422.50000000000006 573.2999999999994 422.7000000000001 573.6999999999995 C 422.9000000000001 573.9999999999994 423.0000000000001 574.2999999999995 423.2000000000001 574.5999999999995 C 423.4000000000001 574.9999999999994 423.6000000000001 575.2999999999995 423.8000000000001 575.6999999999995 C 424.0000000000001 575.9999999999994 424.10000000000014 576.2999999999995 424.3000000000001 576.5999999999995 C 424.5000000000001 576.9999999999994 424.7000000000001 577.2999999999995 425.0000000000001 577.6999999999995 C 425.2000000000001 577.9999999999994 425.3000000000001 578.2999999999995 425.5000000000001 578.4999999999994 C 425.7000000000001 578.8999999999994 426.0000000000001 579.1999999999995 426.2000000000001 579.5999999999995 C 426.4000000000001 579.8999999999994 426.5000000000001 580.0999999999995 426.7000000000001 580.3999999999994 C 427.0000000000001 580.7999999999994 427.2000000000001 581.1999999999994 427.5000000000001 581.5999999999995 C 427.7000000000001 581.7999999999995 427.8000000000001 581.9999999999994 428.0000000000001 582.2999999999995 C 428.4000000000001 582.7999999999995 428.7000000000001 583.2999999999995 429.10000000000014 583.7999999999995 C 429.20000000000016 583.8999999999995 429.3000000000001 583.9999999999995 429.3000000000001 584.0999999999995 C 429.8000000000001 584.6999999999995 430.2000000000001 585.2999999999995 430.7000000000001 585.8999999999994 C 430.8000000000001 585.9999999999994 430.8000000000001 586.0999999999995 430.9000000000001 586.0999999999995 C 431.30000000000007 586.5999999999995 431.7000000000001 587.0999999999995 432.1000000000001 587.5999999999995 C 432.2000000000001 587.6999999999995 432.4000000000001 587.8999999999994 432.50000000000006 587.9999999999994 C 432.90000000000003 588.3999999999994 433.20000000000005 588.8999999999994 433.6000000000001 589.2999999999994 C 433.7000000000001 589.4999999999994 433.9000000000001 589.5999999999993 434.00000000000006 589.7999999999994 C 434.40000000000003 590.1999999999994 434.80000000000007 590.5999999999993 435.1000000000001 591.0999999999993 C 435.2000000000001 591.1999999999994 435.4000000000001 591.3999999999993 435.50000000000006 591.4999999999993 C 435.90000000000003 591.8999999999993 436.30000000000007 592.3999999999993 436.70000000000005 592.7999999999993 C 436.80000000000007 592.8999999999993 436.90000000000003 592.9999999999993 437.00000000000006 593.1999999999992 C 437.50000000000006 593.6999999999992 437.90000000000003 594.0999999999992 438.40000000000003 594.5999999999992 C 438.50000000000006 594.6999999999992 438.50000000000006 594.6999999999992 438.6 594.7999999999993 C 441 597.0999999999992 443.6 599.2999999999993 446.3 601.3999999999993 C 446.3 601.3999999999993 446.40000000000003 601.3999999999993 446.40000000000003 601.4999999999993 C 448.00000000000006 602.6999999999994 449.70000000000005 603.8999999999993 451.3 604.9999999999993 C 451.40000000000003 605.0999999999993 451.5 605.0999999999993 451.5 605.1999999999994 C 453.2 606.2999999999994 454.9 607.2999999999994 456.6 608.2999999999994 C 456.70000000000005 608.2999999999994 456.70000000000005 608.3999999999994 456.8 608.3999999999994 C 462.1 611.3999999999994 467.8 613.7999999999994 473.7 615.5999999999995 C 473.7 615.5999999999995 473.7 615.5999999999995 473.8 615.5999999999995 C 474.7 615.8999999999994 475.5 616.0999999999995 476.40000000000003 616.3999999999994 C 476.6 616.3999999999994 476.70000000000005 616.4999999999994 476.90000000000003 616.4999999999994 C 478.70000000000005 616.9999999999994 480.6 617.3999999999994 482.50000000000006 617.7999999999994 C 482.70000000000005 617.7999999999994 482.80000000000007 617.8999999999994 483.00000000000006 617.8999999999994 C 483.90000000000003 618.0999999999995 484.80000000000007 618.1999999999994 485.70000000000005 618.3999999999994 C 485.80000000000007 618.3999999999994 485.80000000000007 618.3999999999994 485.90000000000003 618.3999999999994 C 487.70000000000005 618.6999999999994 489.6 618.8999999999994 491.40000000000003 619.0999999999995 C 491.50000000000006 619.0999999999995 491.6 619.0999999999995 491.8 619.0999999999995 C 492.5 619.1999999999995 493.3 619.1999999999995 494 619.2999999999995 C 494.1 619.2999999999995 494.3 619.2999999999995 494.4 619.2999999999995 C 495.2 619.2999999999995 496 619.3999999999995 496.7 619.3999999999995 C 496.8 619.3999999999995 496.9 619.3999999999995 496.9 619.3999999999995 C 497.79999999999995 619.3999999999995 498.7 619.3999999999995 499.59999999999997 619.3999999999995 L 499.59999999999997 619.3999999999995 C 500.49999999999994 619.3999999999995 501.4 619.3999999999995 502.29999999999995 619.3999999999995 C 502.4 619.3999999999995 502.49999999999994 619.3999999999995 502.49999999999994 619.3999999999995 C 503.29999999999995 619.3999999999995 504.09999999999997 619.2999999999995 504.79999999999995 619.2999999999995 C 504.9 619.2999999999995 505.09999999999997 619.2999999999995 505.19999999999993 619.2999999999995 C 505.8999999999999 619.2999999999995 506.69999999999993 619.1999999999995 507.3999999999999 619.0999999999995 C 507.49999999999994 619.0999999999995 507.5999999999999 619.0999999999995 507.7999999999999 619.0999999999995 C 509.6999999999999 618.8999999999994 511.4999999999999 618.6999999999995 513.3 618.3999999999994 C 513.4 618.3999999999994 513.4 618.3999999999994 513.5 618.3999999999994 C 514.4 618.2999999999994 515.3 618.0999999999995 516.2 617.8999999999994 C 516.4000000000001 617.8999999999994 516.5 617.7999999999994 516.7 617.7999999999994 C 518.6 617.3999999999994 520.4000000000001 616.9999999999994 522.3000000000001 616.4999999999994 C 522.5000000000001 616.4999999999994 522.6 616.3999999999994 522.8000000000001 616.3999999999994 C 523.7 616.1999999999994 524.6 615.8999999999994 525.4000000000001 615.5999999999995 C 525.4000000000001 615.5999999999995 525.4000000000001 615.5999999999995 525.5000000000001 615.5999999999995 C 531.4000000000001 613.7999999999995 537.1000000000001 611.3999999999994 542.4000000000001 608.3999999999994 C 542.5000000000001 608.3999999999994 542.5000000000001 608.2999999999994 542.6000000000001 608.2999999999994 C 544.4000000000001 607.2999999999994 546.1000000000001 606.2999999999994 547.7000000000002 605.1999999999994 C 547.8000000000002 605.0999999999993 547.9000000000002 605.0999999999993 547.9000000000002 604.9999999999993 C 549.6000000000003 603.8999999999993 551.2000000000002 602.6999999999994 552.8000000000002 601.4999999999993 C 552.8000000000002 601.4999999999993 552.9000000000002 601.4999999999993 552.9000000000002 601.3999999999993 C 554.9000000000002 599.8999999999993 556.7000000000002 598.2999999999993 558.6000000000003 596.6999999999992 C 558.6000000000003 596.6999999999992 558.6000000000003 596.6999999999992 558.6000000000003 596.6999999999992 C 559.7000000000003 595.6999999999992 560.7000000000003 594.7999999999993 561.7000000000003 593.6999999999992 C 561.7000000000003 593.6999999999992 561.7000000000003 593.6999999999992 561.7000000000003 593.6999999999992 C 561.8000000000003 593.5999999999992 561.9000000000003 593.4999999999992 562.0000000000002 593.3999999999993 C 577.7000000000003 577.4999999999993 587.4000000000002 555.6999999999992 587.4000000000002 531.5999999999993 L 587.4000000000002 531.5999999999993 L 587.4000000000002 528.7999999999994 L 618.1000000000003 528.7999999999994 L 618.1000000000003 532.0999999999993 C 618.1000000000003 597.4999999999993 564.9000000000002 650.6999999999994 499.5000000000002 650.6999999999994 C 434.10000000000025 650.6999999999994 380.9000000000002 597.4999999999993 380.9000000000002 532.0999999999993 L 380.9000000000002 528.8 z" stroke-linecap="round" />
</g>
		<g transform="matrix(1 0 0 1 0 194.35)"  >
<path style="stroke: none; stroke-width: 1; stroke-dasharray: none; stroke-linecap: butt; stroke-dashoffset: 0; stroke-linejoin: miter; stroke-miterlimit: 4; fill: rgb(247,203,21); fill-rule: nonzero; opacity: 1;" vector-effect="non-scaling-stroke"  transform=" translate(-500, -694.35)" d="M 522 652.6 L 522 736.1 C 522 748.2 512.2 758.1 500 758.1 C 487.9 758.1 478 748.3000000000001 478 736.1 L 478 652.6 C 478 648 479.4 643.8000000000001 481.8 640.2 C 485.7 634.4000000000001 492.40000000000003 630.6 499.90000000000003 630.6 C 507.40000000000003 630.6 514.1 634.4 518 640.2 C 520.6 643.8 522 648 522 652.6 z" stroke-linecap="round" />
</g>
		<g transform="matrix(1 0 0 1 0.05 236.1)"  >
<path style="stroke: none; stroke-width: 1; stroke-dasharray: none; stroke-linecap: butt; stroke-dashoffset: 0; stroke-linejoin: miter; stroke-miterlimit: 4; fill: rgb(254,222,58); fill-rule: nonzero; opacity: 1;" vector-effect="non-scaling-stroke"  transform=" translate(-500.05, -736.1)" d="M 587.8 758.1 L 412.2 758.1 C 400.09999999999997 758.1 390.2 748.3000000000001 390.2 736.1 C 390.2 724 400 714.1 412.2 714.1 L 587.9 714.1 C 600 714.1 609.9 723.9 609.9 736.1 C 609.8 748.2 600 758.1 587.8 758.1 z" stroke-linecap="round" />
</g>
		<g transform="matrix(1 0 0 1 0.05 242.15)"  >
<path style="stroke: none; stroke-width: 1; stroke-dasharray: none; stroke-linecap: butt; stroke-dashoffset: 0; stroke-linejoin: miter; stroke-miterlimit: 4; fill: rgb(247,203,21); fill-rule: nonzero; opacity: 1;" vector-effect="non-scaling-stroke"  transform=" translate(-500.05, -742.15)" d="M 587.8 738.3 L 412.2 738.3 C 403.59999999999997 738.3 396.2 733.4 392.59999999999997 726.1999999999999 C 391.09999999999997 729.1999999999999 390.2 732.4999999999999 390.2 736.0999999999999 C 390.2 748.1999999999999 400 758.0999999999999 412.2 758.0999999999999 L 587.9 758.0999999999999 C 600 758.0999999999999 609.9 748.3 609.9 736.0999999999999 C 609.9 732.4999999999999 609 729.1999999999999 607.5 726.1999999999999 C 603.8 733.4 596.4 738.3 587.8 738.3 z" stroke-linecap="round" />
</g>
		<g transform="matrix(1 0 0 1 0 -5.5)"  >
<rect style="stroke: none; stroke-width: 1; stroke-dasharray: none; stroke-linecap: butt; stroke-dashoffset: 0; stroke-linejoin: miter; stroke-miterlimit: 4; fill: rgb(255,255,255); fill-rule: nonzero; opacity: 1;" vector-effect="non-scaling-stroke"  x="-118.6" y="-14.3" rx="0" ry="0" width="237.2" height="28.6" />
</g>
		<g transform="matrix(1 0 0 1 0 1.65)"  >
<rect style="stroke: none; stroke-width: 1; stroke-dasharray: none; stroke-linecap: butt; stroke-dashoffset: 0; stroke-linejoin: miter; stroke-miterlimit: 4; fill: rgb(209,211,212); fill-rule: nonzero; opacity: 1;" vector-effect="non-scaling-stroke"  x="-118.6" y="-7.15" rx="0" ry="0" width="237.2" height="14.3" />
</g>
		<g transform="matrix(1 0 0 1 0 -79.3)"  >
<path style="stroke: none; stroke-width: 1; stroke-dasharray: none; stroke-linecap: butt; stroke-dashoffset: 0; stroke-linejoin: miter; stroke-miterlimit: 4; fill: rgb(247,203,21); fill-rule: nonzero; opacity: 1;" vector-effect="non-scaling-stroke"  transform=" translate(-500, -420.7)" d="M 500 599.4 L 500 599.4 C 451.5 599.4 412.2 560.1 412.2 511.59999999999997 L 412.2 329.8 C 412.2 281.3 451.5 242 500 242 L 500 242 C 548.5 242 587.8 281.3 587.8 329.8 L 587.8 511.6 C 587.8 560.1 548.5 599.4 500 599.4 z" stroke-linecap="round" />
</g>
		<g transform="matrix(1 0 0 1 0 -79.3)"  >
<path style="stroke: none; stroke-width: 1; stroke-dasharray: none; stroke-linecap: butt; stroke-dashoffset: 0; stroke-linejoin: miter; stroke-miterlimit: 4; fill: rgb(254,222,58); fill-rule: nonzero; opacity: 1;" vector-effect="non-scaling-stroke"  transform=" translate(-500, -420.7)" d="M 500 599.4 L 500 599.4 C 475.1 599.4 455 579.1999999999999 455 554.4 L 455 287 C 455 262.1 475.2 242 500 242 L 500 242 C 524.9 242 545 262.2 545 287 L 545 554.4 C 545 579.3 524.9 599.4 500 599.4 z" stroke-linecap="round" />
</g>
		<g transform="matrix(1 0 0 1 0 162.9)"  >
<path style="stroke: none; stroke-width: 1; stroke-dasharray: none; stroke-linecap: butt; stroke-dashoffset: 0; stroke-linejoin: miter; stroke-miterlimit: 4; fill: rgb(231,173,39); fill-rule: nonzero; opacity: 1;" vector-effect="non-scaling-stroke"  transform=" translate(-500, -662.9)" d="M 522 652.6 L 522 684.1 C 514.8 685.1 507.5 685.6 500 685.6 C 492.5 685.6 485.2 685.1 478 684.1 L 478 652.6 C 478 648 479.4 643.8000000000001 481.8 640.2 C 487.7 641.1 493.8 641.6 499.90000000000003 641.6 C 506.00000000000006 641.6 512.1 641.1 518 640.2 C 520.6 643.8 522 648 522 652.6 z" stroke-linecap="round" />
</g>
		<g transform="matrix(1 0 0 1 0.1 64.25)"  >
<path style="stroke: none; stroke-width: 1; stroke-dasharray: none; stroke-linecap: butt; stroke-dashoffset: 0; stroke-linejoin: miter; stroke-miterlimit: 4; fill: rgb(254,222,58); fill-rule: nonzero; opacity: 1;" vector-effect="non-scaling-stroke"  transform=" translate(-500.1, -564.25)" d="M 500 674.6 C 410.4 674.6 337.5 601.7 337.5 512.1 L 337.5 475.90000000000003 C 337.5 463.8 347.3 453.90000000000003 359.5 453.90000000000003 C 371.7 453.90000000000003 381.5 463.70000000000005 381.5 475.90000000000003 L 381.5 512.1 C 381.5 577.5 434.7 630.7 500.1 630.7 C 565.5 630.7 618.7 577.5 618.7 512.1 L 618.7 475.90000000000003 C 618.7 463.8 628.5 453.90000000000003 640.7 453.90000000000003 C 652.8000000000001 453.90000000000003 662.7 463.70000000000005 662.7 475.90000000000003 L 662.7 512.1 C 662.5 601.7 589.6 674.6 500 674.6 z" stroke-linecap="round" />
</g>
		<g transform="matrix(1 0 0 1 0 53.2)"  >
<path style="stroke: none; stroke-width: 1; stroke-dasharray: none; stroke-linecap: butt; stroke-dashoffset: 0; stroke-linejoin: miter; stroke-miterlimit: 4; fill: rgb(247,203,21); fill-rule: nonzero; opacity: 1;" vector-effect="non-scaling-stroke"  transform=" translate(-500, -553.2)" d="M 500 652.6 L 500 652.6 C 577.6 652.6 640.6 589.7 640.6 512 L 640.6 453.8 C 628.5 453.8 618.6 463.6 618.6 475.8 L 618.6 512 C 618.6 577.4 565.4 630.6 500 630.6 C 434.6 630.6 381.4 577.4 381.4 512 L 381.4 475.8 C 381.4 463.7 371.59999999999997 453.8 359.4 453.8 L 359.4 512 C 359.4 589.7 422.4 652.6 500 652.6 z" stroke-linecap="round" />
</g>
		<g transform="matrix(1 0 0 1 0 33.45)"  >
<path style="stroke: none; stroke-width: 1; stroke-dasharray: none; stroke-linecap: butt; stroke-dashoffset: 0; stroke-linejoin: miter; stroke-miterlimit: 4; fill: rgb(247,203,21); fill-rule: nonzero; opacity: 1;" vector-effect="non-scaling-stroke"  transform=" translate(-500, -533.45)" d="M 587.8 467.6 L 587.8 511.5 C 587.8 535.8 578 557.7 562.0999999999999 573.6 C 560.0999999999999 575.6 557.8999999999999 577.6 555.6999999999999 579.4 C 549.3 584.6999999999999 542.0999999999999 589.1 534.3 592.4 C 526.9 595.6 519 597.6999999999999 510.69999999999993 598.6999999999999 C 507.19999999999993 599.0999999999999 503.5999999999999 599.3 499.99999999999994 599.3 C 496.4 599.3 492.79999999999995 599.0999999999999 489.29999999999995 598.6999999999999 C 480.99999999999994 597.6999999999999 473.09999999999997 595.4999999999999 465.69999999999993 592.4 C 457.8999999999999 589.1 450.69999999999993 584.6999999999999 444.29999999999995 579.4 C 424.69999999999993 563.3 412.19999999999993 538.9 412.19999999999993 511.5 L 412.19999999999993 467.6 C 412.19999999999993 495 424.69999999999993 519.4 444.29999999999995 535.5 C 450.69999999999993 540.8 457.9 545.2 465.69999999999993 548.5 C 473.0999999999999 551.7 480.99999999999994 553.8 489.29999999999995 554.8 C 492.79999999999995 555.1999999999999 496.4 555.4 499.99999999999994 555.4 C 503.5999999999999 555.4 507.19999999999993 555.1999999999999 510.69999999999993 554.8 C 518.9999999999999 553.8 526.9 551.5999999999999 534.3 548.5 C 542.0999999999999 545.2 549.3 540.8 555.6999999999999 535.5 C 575.3 519.4 587.8 495 587.8 467.6 z" stroke-linecap="round" />
</g>
		<g transform="matrix(1 0 0 1 -50.75 -148.5)"  >
<path style="stroke: none; stroke-width: 1; stroke-dasharray: none; stroke-linecap: butt; stroke-dashoffset: 0; stroke-linejoin: miter; stroke-miterlimit: 4; fill: rgb(231,173,39); fill-rule: nonzero; opacity: 1;" vector-effect="non-scaling-stroke"  transform=" translate(-449.25, -351.5)" d="M 475.6 362.2 L 412.20000000000005 362.2 L 412.20000000000005 340.8 L 475.6 340.8 C 481.5 340.8 486.3 345.6 486.3 351.5 L 486.3 351.5 C 486.3 357.4 481.5 362.2 475.6 362.2 z" stroke-linecap="round" />
</g>
		<g transform="matrix(1 0 0 1 -50.75 -144.9)"  >
<path style="stroke: none; stroke-width: 1; stroke-dasharray: none; stroke-linecap: butt; stroke-dashoffset: 0; stroke-linejoin: miter; stroke-miterlimit: 4; fill: rgb(255,243,53); fill-rule: nonzero; opacity: 1;" vector-effect="non-scaling-stroke"  transform=" translate(-449.25, -355.1)" d="M 475.6 355.2 L 412.20000000000005 355.2 L 412.20000000000005 362.2 L 475.6 362.2 C 481.5 362.2 486.3 357.4 486.3 351.5 C 486.3 350.3 486.1 349.1 485.7 348 C 484.2 352.2 480.3 355.2 475.6 355.2 z" stroke-linecap="round" />
</g>
		<g transform="matrix(1 0 0 1 50.75 -148.5)"  >
<path style="stroke: none; stroke-width: 1; stroke-dasharray: none; stroke-linecap: butt; stroke-dashoffset: 0; stroke-linejoin: miter; stroke-miterlimit: 4; fill: rgb(231,173,39); fill-rule: nonzero; opacity: 1;" vector-effect="non-scaling-stroke"  transform=" translate(-550.75, -351.5)" d="M 524.4 362.2 L 587.8 362.2 L 587.8 340.8 L 524.4 340.8 C 518.5 340.8 513.6999999999999 345.6 513.6999999999999 351.5 L 513.6999999999999 351.5 C 513.7 357.4 518.5 362.2 524.4 362.2 z" stroke-linecap="round" />
</g>
		<g transform="matrix(1 0 0 1 50.75 -144.9)"  >
<path style="stroke: none; stroke-width: 1; stroke-dasharray: none; stroke-linecap: butt; stroke-dashoffset: 0; stroke-linejoin: miter; stroke-miterlimit: 4; fill: rgb(255,243,53); fill-rule: nonzero; opacity: 1;" vector-effect="non-scaling-stroke"  transform=" translate(-550.75, -355.1)" d="M 524.4 355.2 L 587.8 355.2 L 587.8 362.2 L 524.4 362.2 C 518.5 362.2 513.6999999999999 357.4 513.6999999999999 351.5 C 513.6999999999999 350.3 513.9 349.1 514.3 348 C 515.8 352.2 519.7 355.2 524.4 355.2 z" stroke-linecap="round" />
</g>
		<g transform="matrix(1 0 0 1 -50.75 -101.3)"  >
<path style="stroke: none; stroke-width: 1; stroke-dasharray: none; stroke-linecap: butt; stroke-dashoffset: 0; stroke-linejoin: miter; stroke-miterlimit: 4; fill: rgb(231,173,39); fill-rule: nonzero; opacity: 1;" vector-effect="non-scaling-stroke"  transform=" translate(-449.25, -398.7)" d="M 475.6 409.4 L 412.20000000000005 409.4 L 412.20000000000005 388 L 475.6 388 C 481.5 388 486.3 392.8 486.3 398.7 L 486.3 398.7 C 486.3 404.6 481.5 409.4 475.6 409.4 z" stroke-linecap="round" />
</g>
		<g transform="matrix(1 0 0 1 -50.75 -97.6)"  >
<path style="stroke: none; stroke-width: 1; stroke-dasharray: none; stroke-linecap: butt; stroke-dashoffset: 0; stroke-linejoin: miter; stroke-miterlimit: 4; fill: rgb(255,243,53); fill-rule: nonzero; opacity: 1;" vector-effect="non-scaling-stroke"  transform=" translate(-449.25, -402.4)" d="M 475.6 402.5 L 412.20000000000005 402.5 L 412.20000000000005 409.5 L 475.6 409.5 C 481.5 409.5 486.3 404.7 486.3 398.8 C 486.3 397.6 486.1 396.40000000000003 485.7 395.3 C 484.2 399.4 480.3 402.5 475.6 402.5 z" stroke-linecap="round" />
</g>
		<g transform="matrix(1 0 0 1 50.75 -101.3)"  >
<path style="stroke: none; stroke-width: 1; stroke-dasharray: none; stroke-linecap: butt; stroke-dashoffset: 0; stroke-linejoin: miter; stroke-miterlimit: 4; fill: rgb(231,173,39); fill-rule: nonzero; opacity: 1;" vector-effect="non-scaling-stroke"  transform=" translate(-550.75, -398.7)" d="M 524.4 409.4 L 587.8 409.4 L 587.8 388 L 524.4 388 C 518.5 388 513.6999999999999 392.8 513.6999999999999 398.7 L 513.6999999999999 398.7 C 513.7 404.6 518.5 409.4 524.4 409.4 z" stroke-linecap="round" />
</g>
		<g transform="matrix(1 0 0 1 50.75 -97.6)"  >
<path style="stroke: none; stroke-width: 1; stroke-dasharray: none; stroke-linecap: butt; stroke-dashoffset: 0; stroke-linejoin: miter; stroke-miterlimit: 4; fill: rgb(255,243,53); fill-rule: nonzero; opacity: 1;" vector-effect="non-scaling-stroke"  transform=" translate(-550.75, -402.4)" d="M 524.4 402.5 L 587.8 402.5 L 587.8 409.5 L 524.4 409.5 C 518.5 409.5 513.6999999999999 404.7 513.6999999999999 398.8 C 513.6999999999999 397.6 513.9 396.40000000000003 514.3 395.3 C 515.8 399.4 519.7 402.5 524.4 402.5 z" stroke-linecap="round" />
</g>
		<g transform="matrix(1 0 0 1 -50.75 -54.1)"  >
<path style="stroke: none; stroke-width: 1; stroke-dasharray: none; stroke-linecap: butt; stroke-dashoffset: 0; stroke-linejoin: miter; stroke-miterlimit: 4; fill: rgb(231,173,39); fill-rule: nonzero; opacity: 1;" vector-effect="non-scaling-stroke"  transform=" translate(-449.25, -445.9)" d="M 475.6 456.6 L 412.20000000000005 456.6 L 412.20000000000005 435.20000000000005 L 475.6 435.20000000000005 C 481.5 435.20000000000005 486.3 440.00000000000006 486.3 445.90000000000003 L 486.3 445.90000000000003 C 486.3 451.8 481.5 456.6 475.6 456.6 z" stroke-linecap="round" />
</g>
		<g transform="matrix(1 0 0 1 -50.75 -50.4)"  >
<path style="stroke: none; stroke-width: 1; stroke-dasharray: none; stroke-linecap: butt; stroke-dashoffset: 0; stroke-linejoin: miter; stroke-miterlimit: 4; fill: rgb(255,243,53); fill-rule: nonzero; opacity: 1;" vector-effect="non-scaling-stroke"  transform=" translate(-449.25, -449.6)" d="M 475.6 449.7 L 412.20000000000005 449.7 L 412.20000000000005 456.7 L 475.6 456.7 C 481.5 456.7 486.3 451.9 486.3 446 C 486.3 444.8 486.1 443.6 485.7 442.5 C 484.2 446.6 480.3 449.7 475.6 449.7 z" stroke-linecap="round" />
</g>
		<g transform="matrix(1 0 0 1 50.75 -54.1)"  >
<path style="stroke: none; stroke-width: 1; stroke-dasharray: none; stroke-linecap: butt; stroke-dashoffset: 0; stroke-linejoin: miter; stroke-miterlimit: 4; fill: rgb(231,173,39); fill-rule: nonzero; opacity: 1;" vector-effect="non-scaling-stroke"  transform=" translate(-550.75, -445.9)" d="M 524.4 456.6 L 587.8 456.6 L 587.8 435.20000000000005 L 524.4 435.20000000000005 C 518.5 435.20000000000005 513.6999999999999 440.00000000000006 513.6999999999999 445.90000000000003 L 513.6999999999999 445.90000000000003 C 513.7 451.8 518.5 456.6 524.4 456.6 z" stroke-linecap="round" />
</g>
		<g transform="matrix(1 0 0 1 50.75 -50.4)"  >
<path style="stroke: none; stroke-width: 1; stroke-dasharray: none; stroke-linecap: butt; stroke-dashoffset: 0; stroke-linejoin: miter; stroke-miterlimit: 4; fill: rgb(255,243,53); fill-rule: nonzero; opacity: 1;" vector-effect="non-scaling-stroke"  transform=" translate(-550.75, -449.6)" d="M 524.4 449.7 L 587.8 449.7 L 587.8 456.7 L 524.4 456.7 C 518.5 456.7 513.6999999999999 451.9 513.6999999999999 446 C 513.6999999999999 444.8 513.9 443.6 514.3 442.5 C 515.8 446.6 519.7 449.7 524.4 449.7 z" stroke-linecap="round" />
</g>
		<g transform="matrix(1 0 0 1 -50.75 -6.9)"  >
<path style="stroke: none; stroke-width: 1; stroke-dasharray: none; stroke-linecap: butt; stroke-dashoffset: 0; stroke-linejoin: miter; stroke-miterlimit: 4; fill: rgb(231,173,39); fill-rule: nonzero; opacity: 1;" vector-effect="non-scaling-stroke"  transform=" translate(-449.25, -493.1)" d="M 475.6 503.8 L 412.20000000000005 503.8 L 412.20000000000005 482.40000000000003 L 475.6 482.40000000000003 C 481.5 482.40000000000003 486.3 487.20000000000005 486.3 493.1 L 486.3 493.1 C 486.3 499 481.5 503.8 475.6 503.8 z" stroke-linecap="round" />
</g>
		<g transform="matrix(1 0 0 1 -50.75 -3.2)"  >
<path style="stroke: none; stroke-width: 1; stroke-dasharray: none; stroke-linecap: butt; stroke-dashoffset: 0; stroke-linejoin: miter; stroke-miterlimit: 4; fill: rgb(255,243,53); fill-rule: nonzero; opacity: 1;" vector-effect="non-scaling-stroke"  transform=" translate(-449.25, -496.8)" d="M 475.6 496.9 L 412.20000000000005 496.9 L 412.20000000000005 503.9 L 475.6 503.9 C 481.5 503.9 486.3 499.09999999999997 486.3 493.2 C 486.3 492 486.1 490.8 485.7 489.7 C 484.2 493.9 480.3 496.9 475.6 496.9 z" stroke-linecap="round" />
</g>
		<g transform="matrix(1 0 0 1 50.75 -6.9)"  >
<path style="stroke: none; stroke-width: 1; stroke-dasharray: none; stroke-linecap: butt; stroke-dashoffset: 0; stroke-linejoin: miter; stroke-miterlimit: 4; fill: rgb(231,173,39); fill-rule: nonzero; opacity: 1;" vector-effect="non-scaling-stroke"  transform=" translate(-550.75, -493.1)" d="M 524.4 503.8 L 587.8 503.8 L 587.8 482.40000000000003 L 524.4 482.40000000000003 C 518.5 482.40000000000003 513.6999999999999 487.20000000000005 513.6999999999999 493.1 L 513.6999999999999 493.1 C 513.7 499 518.5 503.8 524.4 503.8 z" stroke-linecap="round" />
</g>
		<g transform="matrix(1 0 0 1 50.75 -3.2)"  >
<path style="stroke: none; stroke-width: 1; stroke-dasharray: none; stroke-linecap: butt; stroke-dashoffset: 0; stroke-linejoin: miter; stroke-miterlimit: 4; fill: rgb(255,243,53); fill-rule: nonzero; opacity: 1;" vector-effect="non-scaling-stroke"  transform=" translate(-550.75, -496.8)" d="M 524.4 496.9 L 587.8 496.9 L 587.8 503.9 L 524.4 503.9 C 518.5 503.9 513.6999999999999 499.09999999999997 513.6999999999999 493.2 C 513.6999999999999 492 513.9 490.8 514.3 489.7 C 515.8 493.9 519.7 496.9 524.4 496.9 z" stroke-linecap="round" />
</g>
		<g transform="matrix(1 0 0 1 0 57.8)"  >
<path style="stroke: none; stroke-width: 1; stroke-dasharray: none; stroke-linecap: butt; stroke-dashoffset: 0; stroke-linejoin: miter; stroke-miterlimit: 4; fill: rgb(231,173,39); fill-rule: nonzero; opacity: 1;" vector-effect="non-scaling-stroke"  transform=" translate(-500, -557.8)" d="M 545 516.2 C 539.1 516.2 534.3 521 534.3 526.9000000000001 L 534.3 592.4000000000001 C 542.0999999999999 589.1000000000001 549.3 584.7 555.6999999999999 579.4000000000001 L 555.6999999999999 526.8000000000001 C 555.7 521 550.9 516.2 545 516.2 z M 500 516.2 C 494.1 516.2 489.3 521 489.3 526.9000000000001 L 489.3 598.8000000000001 C 492.8 599.2 496.40000000000003 599.4000000000001 500 599.4000000000001 C 503.59999999999997 599.4000000000001 507.2 599.2 510.7 598.8000000000001 L 510.7 526.9000000000001 C 510.7 521 505.9 516.2 500 516.2 z M 455 516.2 C 449.1 516.2 444.3 521 444.3 526.9000000000001 L 444.3 579.5000000000001 C 450.7 584.8000000000001 457.90000000000003 589.2000000000002 465.7 592.5000000000001 L 465.7 527.0000000000001 C 465.7 521 460.9 516.2 455 516.2 z" stroke-linecap="round" />
</g>
		<g transform="matrix(1 0 0 1 45 79)"  >
<path style="stroke: none; stroke-width: 1; stroke-dasharray: none; stroke-linecap: butt; stroke-dashoffset: 0; stroke-linejoin: miter; stroke-miterlimit: 4; fill: rgb(254,222,58); fill-rule: nonzero; opacity: 1;" vector-effect="non-scaling-stroke"  transform=" translate(-545, -579)" d="M 534.3 592.4 C 542.0999999999999 589.1 549.3 584.6999999999999 555.6999999999999 579.4 L 555.6999999999999 565.6 C 549.3 570.9 542.0999999999999 575.3000000000001 534.3 578.6 L 534.3 592.4 z" stroke-linecap="round" />
</g>
		<g transform="matrix(1 0 0 1 -45 79.1)"  >
<path style="stroke: none; stroke-width: 1; stroke-dasharray: none; stroke-linecap: butt; stroke-dashoffset: 0; stroke-linejoin: miter; stroke-miterlimit: 4; fill: rgb(254,222,58); fill-rule: nonzero; opacity: 1;" vector-effect="non-scaling-stroke"  transform=" translate(-455, -579.1)" d="M 444.3 579.5 C 450.7 584.8 457.90000000000003 589.2 465.7 592.5 L 465.7 578.7 C 457.9 575.4000000000001 450.7 571 444.3 565.7 L 444.3 579.5 z" stroke-linecap="round" />
</g>
		<g transform="matrix(1 0 0 1 0 92.2)"  >
<path style="stroke: none; stroke-width: 1; stroke-dasharray: none; stroke-linecap: butt; stroke-dashoffset: 0; stroke-linejoin: miter; stroke-miterlimit: 4; fill: rgb(254,222,58); fill-rule: nonzero; opacity: 1;" vector-effect="non-scaling-stroke"  transform=" translate(-500, -592.2)" d="M 489.3 585 L 489.3 598.8 C 492.8 599.1999999999999 496.40000000000003 599.4 500 599.4 C 503.59999999999997 599.4 507.2 599.1999999999999 510.7 598.8 L 510.7 585 C 507.2 585.4 503.59999999999997 585.6 500 585.6 C 496.40000000000003 585.6 492.8 585.4 489.3 585 z" stroke-linecap="round" />
</g>
		<g transform="matrix(1 0 0 1 0 -216.4)"  >
<path style="stroke: none; stroke-width: 1; stroke-dasharray: none; stroke-linecap: butt; stroke-dashoffset: 0; stroke-linejoin: miter; stroke-miterlimit: 4; fill: rgb(231,173,39); fill-rule: nonzero; opacity: 1;" vector-effect="non-scaling-stroke"  transform=" translate(-500, -283.6)" d="M 455 325.2 C 460.9 325.2 465.7 320.4 465.7 314.5 L 465.7 249 C 457.9 252.3 450.7 256.7 444.3 262 L 444.3 314.6 C 444.3 320.4 449.1 325.2 455 325.2 z M 500 325.2 C 505.9 325.2 510.7 320.4 510.7 314.5 L 510.7 242.6 C 507.2 242.2 503.59999999999997 242 500 242 C 496.40000000000003 242 492.8 242.2 489.3 242.6 L 489.3 314.5 C 489.3 320.4 494.1 325.2 500 325.2 z M 545 325.2 C 550.9 325.2 555.7 320.4 555.7 314.5 L 555.7 261.9 C 549.3000000000001 256.59999999999997 542.1 252.2 534.3000000000001 248.89999999999998 L 534.3000000000001 314.4 C 534.3 320.4 539.1 325.2 545 325.2 z" stroke-linecap="round" />
</g>
		<g transform="matrix(1 0 0 1 0 -208.7)"  >
<path style="stroke: none; stroke-width: 1; stroke-dasharray: none; stroke-linecap: butt; stroke-dashoffset: 0; stroke-linejoin: miter; stroke-miterlimit: 4; fill: rgb(254,222,58); fill-rule: nonzero; opacity: 1;" vector-effect="non-scaling-stroke"  transform=" translate(-500, -291.3)" d="M 500 241.9 L 500 241.9 C 451.5 241.9 412.2 281.2 412.2 329.7 L 412.2 340.7 C 412.2 292.2 451.5 252.89999999999998 500 252.89999999999998 L 500 252.89999999999998 C 548.5 252.89999999999998 587.8 292.2 587.8 340.7 L 587.8 329.7 C 587.8 281.3 548.5 241.9 500 241.9 z" stroke-linecap="round" />
</g>
		<g transform="matrix(1 0 0 1 45.05 -239.05)"  >
<path style="stroke: none; stroke-width: 1; stroke-dasharray: none; stroke-linecap: butt; stroke-dashoffset: 0; stroke-linejoin: miter; stroke-miterlimit: 4; fill: rgb(247,203,21); fill-rule: nonzero; opacity: 1;" vector-effect="non-scaling-stroke"  transform=" translate(-545.05, -260.95)" d="M 555.7 272.9 L 555.7 261.9 C 554.8000000000001 261.09999999999997 553.8000000000001 260.4 552.9000000000001 259.7 C 552.6000000000001 259.4 552.2 259.2 551.9000000000001 258.9 C 551.2 258.4 550.5000000000001 257.9 549.7 257.4 C 549.4000000000001 257.2 549 256.9 548.7 256.7 C 547.7 256.09999999999997 546.8000000000001 255.39999999999998 545.8000000000001 254.79999999999998 C 545.7 254.7 545.6 254.7 545.5000000000001 254.6 C 544.5000000000001 254 543.4000000000001 253.4 542.3000000000001 252.79999999999998 C 541.9000000000001 252.6 541.6 252.39999999999998 541.2 252.2 C 540.4000000000001 251.79999999999998 539.7 251.39999999999998 538.9000000000001 251 C 538.5000000000001 250.8 538.1000000000001 250.6 537.7 250.4 C 536.8000000000001 250 535.9000000000001 249.6 535 249.20000000000002 C 534.8 249.10000000000002 534.6 249.00000000000003 534.4 249.00000000000003 L 534.4 260 C 542.1 263.2 549.3 267.6 555.7 272.9 z" stroke-linecap="round" />
</g>
		<g transform="matrix(1 0 0 1 -45 -239.1)"  >
<path style="stroke: none; stroke-width: 1; stroke-dasharray: none; stroke-linecap: butt; stroke-dashoffset: 0; stroke-linejoin: miter; stroke-miterlimit: 4; fill: rgb(247,203,21); fill-rule: nonzero; opacity: 1;" vector-effect="non-scaling-stroke"  transform=" translate(-455, -260.9)" d="M 444.3 272.9 C 450.7 267.59999999999997 457.90000000000003 263.2 465.7 259.9 L 465.7 248.89999999999998 C 465.5 248.99999999999997 465.3 249.09999999999997 465.09999999999997 249.09999999999997 C 464.2 249.49999999999997 463.29999999999995 249.89999999999998 462.4 250.29999999999995 C 462 250.49999999999994 461.59999999999997 250.69999999999996 461.2 250.89999999999995 C 460.4 251.29999999999995 459.7 251.69999999999996 458.9 252.09999999999994 C 458.5 252.29999999999993 458.09999999999997 252.49999999999994 457.79999999999995 252.69999999999993 C 456.69999999999993 253.29999999999993 455.69999999999993 253.89999999999992 454.59999999999997 254.49999999999994 C 454.49999999999994 254.59999999999994 454.4 254.59999999999994 454.29999999999995 254.69999999999993 C 453.29999999999995 255.29999999999993 452.29999999999995 255.89999999999992 451.4 256.5999999999999 C 451.09999999999997 256.7999999999999 450.7 257.0999999999999 450.4 257.2999999999999 C 449.7 257.7999999999999 449 258.2999999999999 448.2 258.7999999999999 C 447.9 259.0999999999999 447.5 259.2999999999999 447.2 259.5999999999999 C 446.2 260.2999999999999 445.3 261.0999999999999 444.4 261.7999999999999 L 444.4 272.9 z" stroke-linecap="round" />
</g>
		<g transform="matrix(1 0 0 1 0 -252.15)"  >
<path style="stroke: none; stroke-width: 1; stroke-dasharray: none; stroke-linecap: butt; stroke-dashoffset: 0; stroke-linejoin: miter; stroke-miterlimit: 4; fill: rgb(247,203,21); fill-rule: nonzero; opacity: 1;" vector-effect="non-scaling-stroke"  transform=" translate(-500, -247.85)" d="M 495.2 242.1 C 493.9 242.2 492.7 242.29999999999998 491.4 242.4 C 491.09999999999997 242.4 490.79999999999995 242.5 490.5 242.5 C 490.1 242.5 489.7 242.6 489.3 242.7 L 489.3 253.7 C 492.8 253.29999999999998 496.40000000000003 253 500 253 C 503.59999999999997 253 507.2 253.2 510.7 253.7 L 510.7 242.7 C 510.3 242.7 509.9 242.6 509.5 242.5 C 509.2 242.5 508.9 242.4 508.6 242.4 C 507.3 242.3 506.1 242.20000000000002 504.8 242.1 C 504.5 242.1 504.3 242.1 504 242.1 C 502.7 242 501.3 242 499.9 242 C 498.49999999999994 242 497.2 242 495.79999999999995 242.1 C 495.7 242.1 495.4 242.1 495.2 242.1 z" stroke-linecap="round" />
</g>
</g>
</g>
</svg>