<?xml version="1.0" encoding="UTF-8"?>
<!DOCTYPE svg PUBLIC "-//W3C//DTD SVG 1.1//EN" "http://www.w3.org/Graphics/SVG/1.1/DTD/svg11.dtd">
<!-- Creator: CorelDRAW -->
<svg xmlns="http://www.w3.org/2000/svg" xml:space="preserve" width="2048px" height="2048px" style="shape-rendering:geometricPrecision; text-rendering:geometricPrecision; image-rendering:optimizeQuality; fill-rule:evenodd; clip-rule:evenodd"
viewBox="0 0 2048 2048"
 xmlns:xlink="http://www.w3.org/1999/xlink">
 <defs>
  <style type="text/css">
   <![CDATA[
    .fil2 {fill:none}
    .fil4 {fill:#29333B}
    .fil9 {fill:#3C4F5E}
    .fil1 {fill:#AFB42B}
    .fil0 {fill:#C0CA33}
    .fil8 {fill:#02708C;fill-rule:nonzero}
    .fil7 {fill:#0285A6;fill-rule:nonzero}
    .fil6 {fill:#1094B5;fill-rule:nonzero}
    .fil5 {fill:#179CBD;fill-rule:nonzero}
    .fil3 {fill:#3C4F5E;fill-rule:nonzero}
   ]]>
  </style>
   <clipPath id="id0">
    <path d="M1024 -0.0011811c565.541,0 1024,458.461 1024,1024 0,565.541 -458.461,1024 -1024,1024 -565.541,0 -1024,-458.461 -1024,-1024 0,-565.541 458.461,-1024 1024,-1024z"/>
   </clipPath>
 </defs>
 <g id="Layer_x0020_1">
  <metadata id="CorelCorpID_0Corel-Layer"/>
  <path class="fil0" d="M1024 -0.0011811c565.541,0 1024,458.461 1024,1024 0,565.541 -458.461,1024 -1024,1024 -565.541,0 -1024,-458.461 -1024,-1024 0,-565.541 458.461,-1024 1024,-1024z"/>
  <g style="clip-path:url(#id0)">
   <g id="_452517176">
    <polygon id="_4525185441" class="fil1" points="976.205,652.198 959.617,652.197 943.044,652.196 926.486,652.193 909.942,652.189 893.41,652.184 876.89,652.178 860.382,652.172 843.882,652.165 827.391,652.157 810.908,652.149 794.43,652.14 777.958,652.131 761.49,652.121 745.026,652.112 728.564,652.101 712.103,652.092 695.641,652.082 679.179,652.072 662.715,652.062 646.247,652.053 629.775,652.043 613.297,652.035 596.814,652.027 580.323,652.019 563.823,652.012 547.315,652.006 530.795,652 514.263,651.995 497.719,651.99 481.161,651.988 464.588,651.987 448,651.986 664.385,909.868 664.385,1396.01 1800.27,2531.9 1822.27,2531.9 1870.23,2531.9 1896.19,2531.9 1896.19,2435.97 1992.11,2531.9 2088.04,2531.9 2088.04,2411.87 2208.06,2531.9 2303.98,2531.9 2303.98,2411.87 2424.01,2531.9 2519.93,2531.9 2519.93,2411.87 2639.96,2531.9 2735.88,2531.9 2735.88,1788.08 1600,652.198 1504.08,652.198 1504.08,964.071 1384.05,844.044 1288.13,844.044 1288.13,964.123 "/>
   </g>
  </g>
  <path class="fil2" d="M1024 -0.0011811c565.541,0 1024,458.461 1024,1024 0,565.541 -458.461,1024 -1024,1024 -565.541,0 -1024,-458.461 -1024,-1024 0,-565.541 458.461,-1024 1024,-1024z"/>
  <g id="_465008944">
   <path id="_464996128" class="fil3" d="M664.385 909.868l-216.385 -257.882c177.037,0 351.169,0.212599 528.206,0.212599l-215.899 257.668 0 486.148 -25.9606 0 -47.9611 0 -22.0004 0 0 -486.147z"/>
   <path id="_464996416" class="fil4" d="M712.354 892.379l161.053 -192.214c-107.493,-0.0413386 -214.987,-0.129921 -322.48,-0.170079l161.427 192.384z"/>
   <polygon id="_464990128" class="fil5" points="952.155,1180.07 952.155,1396.01 856.234,1396.01 856.234,1180.07 "/>
   <polygon id="_464995288" class="fil6" points="1168.1,1012.11 1168.1,1396.01 1072.18,1396.01 1072.18,1012.11 "/>
   <polygon id="_465005152" class="fil7" points="1384.05,844.044 1384.05,1396.01 1288.13,1396.01 1288.13,844.044 "/>
   <polygon id="_465001720" class="fil8" points="1504.08,652.198 1504.08,1396.01 1600,1396.01 1600,652.198 "/>
   <rect id="_465005848" class="fil9" x="688.108" y="682.081" width="47.9889" height="217.829"/>
  </g>
 </g>
</svg>
