<?xml version="1.0" encoding="UTF-8" standalone="no" ?>
<!DOCTYPE svg PUBLIC "-//W3C//DTD SVG 1.1//EN" "http://www.w3.org/Graphics/SVG/1.1/DTD/svg11.dtd">
<svg xmlns="http://www.w3.org/2000/svg" xmlns:xlink="http://www.w3.org/1999/xlink" version="1.1" width="1080" height="1080" viewBox="0 0 1080 1080" xml:space="preserve">
<desc>Created with Fabric.js 5.2.4</desc>
<defs>
</defs>
<rect x="0" y="0" width="100%" height="100%" fill="transparent"></rect>
<g transform="matrix(1 0 0 1 540 540)" id="7116ef0e-0031-4055-87b8-74bbb8cd5b6e"  >
<rect style="stroke: none; stroke-width: 1; stroke-dasharray: none; stroke-linecap: butt; stroke-dashoffset: 0; stroke-linejoin: miter; stroke-miterlimit: 4; fill: rgb(255,255,255); fill-rule: nonzero; opacity: 1; visibility: hidden;" vector-effect="non-scaling-stroke"  x="-540" y="-540" rx="0" ry="0" width="1080" height="1080" />
</g>
<g transform="matrix(1 0 0 1 540 540)" id="f5dffb45-c73b-461f-899e-3a1c5d6ff81a"  >
</g>
<g transform="matrix(1.32 0 0 1.32 540 540)"  >
<g style="" vector-effect="non-scaling-stroke"   >
		<g transform="matrix(1 0 0 1 0 0)"  >
<circle style="stroke: none; stroke-width: 1; stroke-dasharray: none; stroke-linecap: butt; stroke-dashoffset: 0; stroke-linejoin: miter; stroke-miterlimit: 4; fill: rgb(56,43,115); fill-rule: nonzero; opacity: 1;" vector-effect="non-scaling-stroke"  cx="0" cy="0" r="398" />
</g>
		<g transform="matrix(1 0 0 1 0 0)"  >
<circle style="stroke: none; stroke-width: 1; stroke-dasharray: none; stroke-linecap: butt; stroke-dashoffset: 0; stroke-linejoin: miter; stroke-miterlimit: 4; fill: rgb(71,48,128); fill-rule: nonzero; opacity: 1;" vector-effect="non-scaling-stroke"  cx="0" cy="0" r="344.3" />
</g>
		<g transform="matrix(1 0 0 1 0.12 9.96)"  >
<path style="stroke: none; stroke-width: 1; stroke-dasharray: none; stroke-linecap: butt; stroke-dashoffset: 0; stroke-linejoin: miter; stroke-miterlimit: 4; fill: rgb(56,43,115); fill-rule: nonzero; opacity: 1;" vector-effect="non-scaling-stroke"  transform=" translate(-500.12, -509.96)" d="M 739.4 660.8 C 739.4 656.5 737.6999999999999 652.1999999999999 734.5 649 L 704.4 618.9 L 680.4 594.9 C 678.8 593.3 677 591.9 675.1999999999999 590.6 C 669.9 587 663.6999999999999 584.9 657.1999999999999 584.5 C 656.4999999999999 584.5 655.8 584.4 654.9999999999999 584.4 C 654.3999999999999 584.4 653.6999999999999 584.4 653.0999999999999 584.5 L 652.9999999999999 584.5 C 651.8999999999999 584.6 650.8999999999999 584.6 649.7999999999998 584.5 C 642.0999999999998 584.2 634.6999999999998 580.9 629.0999999999998 575.4 L 626.8999999999997 573.1999999999999 L 626.8999999999997 573.1999999999999 L 540.2999999999997 486.5999999999999 L 674 352.9 L 701.3 344 L 723.5 303.4 L 719.7 299.59999999999997 L 710.4000000000001 290.29999999999995 L 706.6000000000001 286.49999999999994 L 666 308.7 L 657.1 336 L 523.4 469.7 L 436.79999999999995 383.1 L 436.79999999999995 383.1 L 434.59999999999997 380.90000000000003 C 429.09999999999997 375.40000000000003 425.79999999999995 368.00000000000006 425.49999999999994 360.20000000000005 C 425.49999999999994 359.1 425.49999999999994 358.1 425.49999999999994 357.00000000000006 L 425.49999999999994 356.90000000000003 C 425.49999999999994 356.3 425.59999999999997 355.6 425.59999999999997 355.00000000000006 C 425.59999999999997 354.30000000000007 425.59999999999997 353.6000000000001 425.49999999999994 352.80000000000007 C 425.09999999999997 346.4000000000001 422.99999999999994 340.1000000000001 419.3999999999999 334.80000000000007 C 418.0999999999999 332.9000000000001 416.69999999999993 331.20000000000005 415.0999999999999 329.6000000000001 L 388.0999999999999 302.6000000000001 L 361.0999999999999 275.6000000000001 C 358.5999999999999 273.1000000000001 355.5999999999999 271.6000000000001 352.3999999999999 271.00000000000006 C 351.2999999999999 270.80000000000007 350.2999999999999 270.70000000000005 349.19999999999993 270.70000000000005 C 348.0999999999999 270.70000000000005 346.99999999999994 270.80000000000007 345.99999999999994 271.00000000000006 C 344.8999999999999 271.20000000000005 343.8999999999999 271.50000000000006 342.8999999999999 271.90000000000003 C 340.8999999999999 272.70000000000005 338.99999999999994 274.00000000000006 337.2999999999999 275.6 C 337.2999999999999 275.6 337.2999999999999 275.6 337.2999999999999 275.6 C 336.8999999999999 276 336.5999999999999 276.3 336.2999999999999 276.70000000000005 C 336.0999999999999 276.90000000000003 335.9999999999999 277.1 335.7999999999999 277.40000000000003 C 335.6999999999999 277.6 335.4999999999999 277.70000000000005 335.3999999999999 277.90000000000003 C 335.19999999999993 278.20000000000005 334.99999999999994 278.50000000000006 334.7999999999999 278.8 C 334.7999999999999 278.90000000000003 334.6999999999999 279 334.6999999999999 279 C 334.4999999999999 279.4 334.2999999999999 279.7 334.09999999999985 280.1 L 334.09999999999985 280.1 L 334.09999999999985 280.1 C 331.09999999999985 286.40000000000003 332.1999999999999 294.1 337.29999999999984 299.3 L 366.1999999999998 328.2 C 376.49999999999983 338.5 376.49999999999983 355.2 366.1999999999998 365.4 C 355.8999999999998 375.7 339.1999999999998 375.7 328.99999999999983 365.4 L 300 336.6 C 294.5 331.1 286.1 330.20000000000005 279.7 333.90000000000003 C 279.59999999999997 333.90000000000003 279.5 334.00000000000006 279.5 334.00000000000006 C 279.2 334.20000000000005 278.9 334.40000000000003 278.6 334.6000000000001 C 278.40000000000003 334.7000000000001 278.3 334.80000000000007 278.1 335.00000000000006 C 277.90000000000003 335.20000000000005 277.70000000000005 335.30000000000007 277.40000000000003 335.50000000000006 C 277.00000000000006 335.80000000000007 276.6 336.20000000000005 276.3 336.50000000000006 C 276.3 336.50000000000006 276.3 336.50000000000006 276.3 336.50000000000006 L 276.3 336.50000000000006 C 274.2 338.6000000000001 272.8 341.00000000000006 272.1 343.6000000000001 C 271.90000000000003 344.1000000000001 271.8 344.6000000000001 271.70000000000005 345.2000000000001 C 271.50000000000006 346.3000000000001 271.40000000000003 347.3000000000001 271.40000000000003 348.4000000000001 C 271.40000000000003 348.9000000000001 271.40000000000003 349.5000000000001 271.50000000000006 350.0000000000001 C 271.90000000000003 353.8000000000001 273.50000000000006 357.4000000000001 276.40000000000003 360.3000000000001 L 306.50000000000006 390.40000000000015 L 330.50000000000006 414.40000000000015 C 332.1000000000001 416.00000000000017 333.90000000000003 417.40000000000015 335.70000000000005 418.70000000000016 C 341.00000000000006 422.3000000000002 347.20000000000005 424.40000000000015 353.70000000000005 424.8000000000002 C 354.40000000000003 424.8000000000002 355.1 424.9000000000002 355.90000000000003 424.9000000000002 C 356.50000000000006 424.9000000000002 357.20000000000005 424.9000000000002 357.8 424.8000000000002 L 357.90000000000003 424.8000000000002 C 361.6 424.6000000000002 365.3 425.00000000000017 368.8 426.1000000000002 C 373.6 427.6000000000002 378.1 430.2000000000002 381.8 433.9000000000002 L 384 436.1000000000002 L 384 436.1000000000002 L 470.6 522.7000000000002 L 434.6 558.7000000000002 L 427.40000000000003 551.5000000000001 L 411.50000000000006 535.6000000000001 C 405.6000000000001 529.7000000000002 396.1000000000001 529.7000000000002 390.30000000000007 535.6000000000001 L 379.70000000000005 546.2000000000002 C 373.80000000000007 552.1000000000001 373.80000000000007 561.6000000000001 379.70000000000005 567.4000000000002 L 384.00000000000006 571.7000000000002 L 366.90000000000003 588.8000000000002 C 361.3 594.4000000000002 353.3 597.1000000000001 344.3 596.5000000000002 L 344.3 596.5000000000002 C 335.3 595.9000000000002 327.2 598.7000000000003 321.7 604.2000000000003 L 264.4 661.5000000000002 C 258.5 667.4000000000002 260.09999999999997 678.4000000000002 267.9 686.2000000000003 L 323.9 742.2000000000003 C 331.7 750.0000000000002 342.7 751.5000000000002 348.59999999999997 745.7000000000003 L 405.9 688.4000000000003 C 411.5 682.8000000000003 414.2 674.8000000000003 413.59999999999997 665.8000000000003 L 413.59999999999997 665.8000000000003 C 412.99999999999994 656.8000000000003 415.79999999999995 648.7000000000003 421.29999999999995 643.2000000000003 L 438.4 626.1000000000003 L 442.7 630.4000000000002 C 448.59999999999997 636.3000000000002 458.09999999999997 636.3000000000002 463.9 630.4000000000002 L 474.5 619.8000000000002 C 480.4 613.9000000000002 480.4 604.4000000000002 474.5 598.6000000000001 L 458.6 582.7000000000002 L 451.40000000000003 575.5000000000001 L 487.40000000000003 539.5000000000001 L 574 626.1000000000001 L 574 626.1000000000001 L 576.2 628.3000000000002 C 580.6 632.7000000000002 583.5 638.3000000000002 584.7 644.3000000000002 C 585.2 646.9000000000002 585.4000000000001 649.5000000000002 585.3000000000001 652.2000000000002 L 585.3000000000001 652.3000000000002 C 585.3000000000001 652.9000000000002 585.2 653.6000000000001 585.2 654.2000000000002 C 585.2 654.9000000000002 585.2 655.6000000000001 585.3000000000001 656.2000000000002 C 585.6 662.7000000000002 587.8000000000001 668.9000000000002 591.4000000000001 674.3000000000002 C 592.7 676.2000000000002 594.1000000000001 677.9000000000002 595.7 679.5000000000002 L 619.7 703.5000000000002 L 649.8000000000001 733.6000000000003 C 653.1 736.9000000000002 657.3000000000001 738.5000000000002 661.6 738.5000000000002 C 661.6 738.5000000000002 661.7 738.5000000000002 661.7 738.5000000000002 C 662.2 738.5000000000002 662.8000000000001 738.5000000000002 663.3000000000001 738.4000000000002 C 663.8000000000001 738.3000000000002 664.4000000000001 738.3000000000002 664.9000000000001 738.2000000000002 C 668.1000000000001 737.6000000000001 671.1000000000001 736.0000000000001 673.6000000000001 733.6000000000001 L 673.6000000000001 733.6000000000001 C 673.6000000000001 733.6000000000001 673.6000000000001 733.6000000000001 673.6000000000001 733.6000000000001 C 674.0000000000001 733.2000000000002 674.3000000000002 732.9000000000001 674.6000000000001 732.5000000000001 C 674.8000000000002 732.3000000000001 674.9000000000001 732.1000000000001 675.1000000000001 731.8000000000001 C 675.2000000000002 731.6 675.4000000000001 731.5000000000001 675.5000000000001 731.3000000000001 C 675.7000000000002 731.0000000000001 675.9000000000001 730.7 676.1000000000001 730.4000000000001 C 676.1000000000001 730.3000000000001 676.2000000000002 730.2 676.2000000000002 730.2 C 676.4000000000002 729.8000000000001 676.6000000000001 729.5 676.8000000000002 729.1 L 676.8000000000002 729.1 L 676.8000000000002 729.1 C 679.8000000000002 722.8000000000001 678.7000000000002 715.1 673.6000000000001 709.9 L 644.7000000000002 681 C 634.4000000000002 670.7 634.4000000000002 654 644.7000000000002 643.8 C 655.0000000000001 633.5 671.7000000000002 633.5 681.9000000000002 643.8 L 710.8000000000002 672.6999999999999 C 716.3000000000002 678.1999999999999 724.7000000000002 679.0999999999999 731.1000000000001 675.4 C 731.2000000000002 675.4 731.2000000000002 675.3 731.3000000000002 675.3 C 731.6000000000001 675.0999999999999 731.9000000000002 674.9 732.2000000000002 674.6999999999999 C 732.4000000000002 674.5999999999999 732.5000000000001 674.4999999999999 732.7000000000002 674.3 C 732.9000000000002 674.0999999999999 733.1000000000001 674 733.4000000000002 673.8 C 733.8000000000002 673.5 734.2000000000002 673.0999999999999 734.5000000000002 672.8 C 734.5000000000002 672.8 734.5000000000002 672.8 734.5000000000002 672.8 C 737.8 669.5 739.4 665.2 739.4 660.8 C 739.4 660.9 739.4 660.8 739.4 660.8 z" stroke-linecap="round" />
</g>
		<g transform="matrix(1 0 0 1 -149.08 139.01)"  >
<path style="stroke: none; stroke-width: 1; stroke-dasharray: none; stroke-linecap: butt; stroke-dashoffset: 0; stroke-linejoin: miter; stroke-miterlimit: 4; fill: rgb(23,123,192); fill-rule: nonzero; opacity: 1;" vector-effect="non-scaling-stroke"  transform=" translate(-350.92, -639.01)" d="M 421.1 623.4 L 441.3 603.1999999999999 L 386.8 548.6999999999999 L 366.6 568.9 C 361 574.5 353 577.1999999999999 344 576.6 L 344 576.6 C 335 576 326.9 578.8000000000001 321.4 584.3000000000001 L 264.09999999999997 641.6 C 258.2 647.5 259.79999999999995 658.5 267.59999999999997 666.3000000000001 L 323.59999999999997 722.3000000000001 C 331.4 730.1 342.4 731.6 348.29999999999995 725.8000000000001 L 405.59999999999997 668.5000000000001 C 411.2 662.9000000000001 413.9 654.9000000000001 413.29999999999995 645.9000000000001 L 413.29999999999995 645.9000000000001 C 412.8 637 415.5 628.9 421.1 623.4 z" stroke-linecap="round" />
</g>
		<g transform="matrix(1 0 0 1 -147 136.85)"  >
<path style="stroke: none; stroke-width: 1; stroke-dasharray: none; stroke-linecap: butt; stroke-dashoffset: 0; stroke-linejoin: miter; stroke-miterlimit: 4; fill: rgb(28,174,228); fill-rule: nonzero; opacity: 1;" vector-effect="non-scaling-stroke"  transform=" translate(-353, -636.85)" d="M 410.3 612.6 L 430.5 592.4 L 397.5 559.4 L 377.3 579.6 C 371.7 585.2 364.8 589 357.6 590.3000000000001 L 357.6 590.3000000000001 C 350.5 591.6 343.5 595.4000000000001 337.90000000000003 601.0000000000001 L 280.6 658.3000000000001 C 274.70000000000005 664.2 273.8 672.7 278.5 677.4000000000001 L 312.4 711.3000000000001 C 317.09999999999997 716.0000000000001 325.7 715.1 331.5 709.2 L 389 652 C 394.6 646.4 398.4 639.5 399.7 632.3 L 399.7 632.3 C 401 625.2 404.8 618.2 410.3 612.6 z" stroke-linecap="round" />
</g>
		<g transform="matrix(0.71 0.71 -0.71 0.71 70.1 -80.1)"  >
<rect style="stroke: none; stroke-width: 1; stroke-dasharray: none; stroke-linecap: butt; stroke-dashoffset: 0; stroke-linejoin: miter; stroke-miterlimit: 4; fill: rgb(209,211,212); fill-rule: nonzero; opacity: 1;" vector-effect="non-scaling-stroke"  x="-12" y="-192" rx="0" ry="0" width="24" height="384" />
</g>
		<g transform="matrix(0.71 0.71 -0.71 0.71 70.1 -80.1)"  >
<rect style="stroke: none; stroke-width: 1; stroke-dasharray: none; stroke-linecap: butt; stroke-dashoffset: 0; stroke-linejoin: miter; stroke-miterlimit: 4; fill: rgb(255,255,255); fill-rule: nonzero; opacity: 1;" vector-effect="non-scaling-stroke"  x="-6.2" y="-192" rx="0" ry="0" width="12.4" height="384" />
</g>
		<g transform="matrix(1 0 0 1 190.3 -200.3)"  >
<polygon style="stroke: none; stroke-width: 1; stroke-dasharray: none; stroke-linecap: butt; stroke-dashoffset: 0; stroke-linejoin: miter; stroke-miterlimit: 4; fill: rgb(209,211,212); fill-rule: nonzero; opacity: 1;" vector-effect="non-scaling-stroke"  points="-16.3,33.2 -33.2,16.3 -24.3,-11 16.3,-33.2 33.2,-16.3 11,24.3 " />
</g>
		<g transform="matrix(1 0 0 1 190.3 -200.3)"  >
<polygon style="stroke: none; stroke-width: 1; stroke-dasharray: none; stroke-linecap: butt; stroke-dashoffset: 0; stroke-linejoin: miter; stroke-miterlimit: 4; fill: rgb(255,255,255); fill-rule: nonzero; opacity: 1;" vector-effect="non-scaling-stroke"  points="-20.1,29.4 -29.4,20.1 -16.3,-3 20.1,-29.4 29.4,-20.1 3,16.3 " />
</g>
		<g transform="matrix(1 0 0 1 -73.1 63.1)"  >
<path style="stroke: none; stroke-width: 1; stroke-dasharray: none; stroke-linecap: butt; stroke-dashoffset: 0; stroke-linejoin: miter; stroke-miterlimit: 4; fill: rgb(167,41,115); fill-rule: nonzero; opacity: 1;" vector-effect="non-scaling-stroke"  transform=" translate(-426.9, -563.1)" d="M 411.3 515.7 L 474.3 578.7 C 480.2 584.6 480.2 594.1 474.3 599.9000000000001 L 463.7 610.5000000000001 C 457.8 616.4000000000001 448.3 616.4000000000001 442.5 610.5000000000001 L 379.5 547.5000000000001 C 373.6 541.6000000000001 373.6 532.1000000000001 379.5 526.3000000000001 L 390.1 515.7 C 396 509.8 405.5 509.8 411.3 515.7 z" stroke-linecap="round" />
</g>
		<g transform="matrix(1 0 0 1 -73.05 63.09)"  >
<path style="stroke: none; stroke-width: 1; stroke-dasharray: none; stroke-linecap: butt; stroke-dashoffset: 0; stroke-linejoin: miter; stroke-miterlimit: 4; fill: rgb(239,90,157); fill-rule: nonzero; opacity: 1;" vector-effect="non-scaling-stroke"  transform=" translate(-426.95, -563.09)" d="M 427.2 531.5 L 458.5 562.8 C 464.4 568.6999999999999 464.4 578.1999999999999 458.5 584 L 447.9 594.6 C 442 600.5 432.5 600.5 426.7 594.6 L 395.4 563.3000000000001 C 389.5 557.4000000000001 389.5 547.9000000000001 395.4 542.1 L 406 531.5 C 411.8 525.7 421.3 525.7 427.2 531.5 z" stroke-linecap="round" />
</g>
		<g transform="matrix(0.71 -0.71 0.71 0.71 0.33 -10.29)"  >
<rect style="stroke: none; stroke-width: 1; stroke-dasharray: none; stroke-linecap: butt; stroke-dashoffset: 0; stroke-linejoin: miter; stroke-miterlimit: 4; fill: rgb(209,211,212); fill-rule: nonzero; opacity: 1;" vector-effect="non-scaling-stroke"  x="-37.5" y="-12" rx="0" ry="0" width="75" height="24" />
</g>
		<g transform="matrix(1 0 0 1 5.35 -15.3)"  >
<path style="stroke: none; stroke-width: 1; stroke-dasharray: none; stroke-linecap: butt; stroke-dashoffset: 0; stroke-linejoin: miter; stroke-miterlimit: 4; fill: rgb(254,222,58); fill-rule: nonzero; opacity: 1;" vector-effect="non-scaling-stroke"  transform=" translate(-505.35, -484.7)" d="M 681.8 623.9 L 710.6999999999999 652.8 C 717.3 659.4 727.9 659.4 734.4999999999999 652.8 L 734.4999999999999 652.8 C 741.0999999999999 646.1999999999999 741.0999999999999 635.5999999999999 734.4999999999999 629 L 680.3999999999999 574.9 C 673.1999999999998 567.6999999999999 663.2999999999998 563.9 653.0999999999999 564.5 L 652.9999999999999 564.5 C 644.0999999999999 565 635.3999999999999 561.7 629.0999999999999 555.4 L 626.8999999999999 553.1999999999999 L 436.8 363.1 L 434.6 360.90000000000003 C 428.3 354.6 425 345.90000000000003 425.5 337.00000000000006 L 425.5 336.90000000000003 C 426.1 326.70000000000005 422.3 316.8 415.1 309.6 L 361 255.5 C 354.4 248.9 343.8 248.9 337.2 255.5 L 337.2 255.5 C 330.59999999999997 262.1 330.59999999999997 272.7 337.2 279.3 L 366.09999999999997 308.2 C 376.4 318.5 376.4 335.2 366.09999999999997 345.4 C 355.79999999999995 355.7 339.09999999999997 355.7 328.9 345.4 L 300 316.6 C 293.4 310 282.8 310 276.2 316.6 L 276.2 316.6 C 269.59999999999997 323.20000000000005 269.59999999999997 333.8 276.2 340.40000000000003 L 330.3 394.50000000000006 C 337.5 401.70000000000005 347.40000000000003 405.50000000000006 357.6 404.90000000000003 L 357.70000000000005 404.90000000000003 C 366.6 404.40000000000003 375.30000000000007 407.70000000000005 381.6 414.00000000000006 L 383.8 416.20000000000005 L 573.9 606.3000000000001 L 576.1 608.5000000000001 C 582.4 614.8000000000001 585.7 623.5000000000001 585.2 632.4000000000001 L 585.2 632.5000000000001 C 584.6 642.7000000000002 588.4000000000001 652.6000000000001 595.6 659.8000000000001 L 649.7 713.9000000000001 C 656.3000000000001 720.5000000000001 666.9000000000001 720.5000000000001 673.5 713.9000000000001 L 673.5 713.9000000000001 C 680.1 707.3000000000001 680.1 696.7 673.5 690.1000000000001 L 644.6 661.2000000000002 C 634.3000000000001 650.9000000000002 634.3000000000001 634.2000000000002 644.6 624.0000000000001 C 654.9 613.6 671.5 613.6 681.8 623.9 z" stroke-linecap="round" />
</g>
		<g transform="matrix(0.73 -0.68 0.68 0.73 -133.93 -154.6)"  >
<ellipse style="stroke: none; stroke-width: 1; stroke-dasharray: none; stroke-linecap: butt; stroke-dashoffset: 0; stroke-linejoin: miter; stroke-miterlimit: 4; fill: rgb(231,173,39); fill-rule: nonzero; opacity: 1;" vector-effect="non-scaling-stroke"  cx="0" cy="0" rx="0" ry="0" />
</g>
		<g transform="matrix(1 0 0 1 -26.03 16.03)"  >
<path style="stroke: none; stroke-width: 1; stroke-dasharray: none; stroke-linecap: butt; stroke-dashoffset: 0; stroke-linejoin: miter; stroke-miterlimit: 4; fill: rgb(231,173,39); fill-rule: nonzero; opacity: 1;" vector-effect="non-scaling-stroke"  transform=" translate(-473.97, -516.03)" d="M 659.3 704.2 L 605.1999999999999 650.1 C 597.9999999999999 642.9 593.4999999999999 633.7 592.9 624.8000000000001 L 592.9 624.7 C 592.3 616.9000000000001 588.4 608.8000000000001 582.1 602.5 L 579.9 600.3 L 389.8 410.1 L 387.6 407.90000000000003 C 381.3 401.6 373.20000000000005 397.70000000000005 365.40000000000003 397.1 L 365.3 397.1 C 356.40000000000003 396.5 347.2 392 340 384.8 L 285.9 330.7 C 280.7 325.5 278.9 318.5 280.79999999999995 313.3 C 279.09999999999997 314.1 277.59999999999997 315.2 276.19999999999993 316.5 L 276.19999999999993 316.5 C 269.5999999999999 323.1 269.5999999999999 333.7 276.19999999999993 340.3 L 330.29999999999995 394.40000000000003 C 337.49999999999994 401.6 347.4 405.40000000000003 357.59999999999997 404.8 L 357.7 404.8 C 366.59999999999997 404.3 375.3 407.6 381.59999999999997 413.90000000000003 L 383.79999999999995 416.1 L 573.9 606.2 L 576.1 608.4000000000001 C 582.4 614.7 585.7 623.4000000000001 585.2 632.3000000000001 L 585.2 632.4000000000001 C 584.6 642.6000000000001 588.4000000000001 652.5000000000001 595.6 659.7 L 649.7 713.8000000000001 C 656.3000000000001 720.4000000000001 666.9000000000001 720.4000000000001 673.5 713.8000000000001 L 673.5 713.8000000000001 C 674.9 712.4000000000001 675.9 710.9000000000001 676.7 709.2 C 671.5 711.2 664.5 709.4 659.3 704.2 z" stroke-linecap="round" />
</g>
		<g transform="matrix(1 0 0 1 36.73 -46.73)"  >
<path style="stroke: none; stroke-width: 1; stroke-dasharray: none; stroke-linecap: butt; stroke-dashoffset: 0; stroke-linejoin: miter; stroke-miterlimit: 4; fill: rgb(231,173,39); fill-rule: nonzero; opacity: 1;" vector-effect="non-scaling-stroke"  transform=" translate(-536.73, -453.27)" d="M 734.5 629 L 680.4 574.9 C 673.1999999999999 567.6999999999999 663.3 563.9 653.1 564.5 L 653 564.5 C 644.1 565 635.4 561.7 629.1 555.4 L 626.9 553.1999999999999 L 436.8 363.1 L 434.6 360.90000000000003 C 428.3 354.6 425 345.90000000000003 425.5 337.00000000000006 L 425.5 336.90000000000003 C 426.1 326.70000000000005 422.3 316.8 415.1 309.6 L 361 255.5 C 354.4 248.9 343.8 248.9 337.2 255.5 C 335.8 256.9 334.8 258.4 334 260.1 C 339.2 258.1 346.2 260 351.4 265.20000000000005 L 405.5 319.30000000000007 C 412.7 326.50000000000006 417.2 335.70000000000005 417.8 344.6000000000001 L 417.8 344.7000000000001 C 418.40000000000003 352.5000000000001 422.3 360.6000000000001 428.6 366.9000000000001 L 430.8 369.1000000000001 L 620.9 559.2 L 623.1 561.4000000000001 C 629.4 567.7 637.5 571.6000000000001 645.3000000000001 572.2 L 645.4000000000001 572.2 C 654.3000000000001 572.8000000000001 663.5000000000001 577.3000000000001 670.7 584.5 L 724.8000000000001 638.6 C 730.0000000000001 643.8000000000001 731.8000000000001 650.8000000000001 729.9000000000001 656 C 731.6000000000001 655.2 733.1000000000001 654.1 734.5000000000001 652.8 C 741.1 646.2 741.1 635.5 734.5 629 z" stroke-linecap="round" />
</g>
		<g transform="matrix(1 0 0 1 5.35 -15.34)"  >
<path style="stroke: none; stroke-width: 1; stroke-dasharray: none; stroke-linecap: butt; stroke-dashoffset: 0; stroke-linejoin: miter; stroke-miterlimit: 4; fill: rgb(255,199,51); fill-rule: nonzero; opacity: 1;" vector-effect="non-scaling-stroke"  transform=" translate(-505.35, -484.66)" d="M 592.3 585.3 L 404.7 397.7 C 400.9 393.9 400.9 387.8 404.7 384 L 404.7 384 C 408.5 380.2 414.59999999999997 380.2 418.4 384 L 606 571.7 C 609.8 575.5 609.8 581.6 606 585.4000000000001 L 606 585.4000000000001 C 602.2 589.1 596.1 589.1 592.3 585.3 z" stroke-linecap="round" />
</g>
		<g transform="matrix(1 0 0 1 -146.9 136.9)"  >
<path style="stroke: none; stroke-width: 1; stroke-dasharray: none; stroke-linecap: butt; stroke-dashoffset: 0; stroke-linejoin: miter; stroke-miterlimit: 4; fill: rgb(23,123,192); fill-rule: nonzero; opacity: 1;" vector-effect="non-scaling-stroke"  transform=" translate(-353.1, -636.9)" d="M 304 672.3 L 388.5 587.8 C 392.3 584 398.4 584 402.2 587.8 L 402.2 587.8 C 406 591.5999999999999 406 597.6999999999999 402.2 601.5 L 317.7 686 C 313.9 689.8 307.8 689.8 304 686 L 304 686 C 300.2 682.2 300.2 676.1 304 672.3 z" stroke-linecap="round" />
</g>
</g>
</g>
</svg>